<svg version="1.1" viewBox="0.0 0.0 600.0 371.0" fill="none" stroke="none" stroke-linecap="square" stroke-miterlimit="10" width="600" height="371" xmlns:xlink="http://www.w3.org/1999/xlink" xmlns="http://www.w3.org/2000/svg"><path fill="#ffffff" d="M0 0L600.0 0L600.0 371.0L0 371.0L0 0Z" fill-rule="nonzero"/><path stroke="#cccccc" stroke-width="1.0" stroke-linecap="butt" d="M48.5 300.5L581.5 300.5" fill-rule="nonzero"/><path stroke="#cccccc" stroke-width="1.0" stroke-linecap="butt" d="M48.5 238.5L581.5 238.5" fill-rule="nonzero"/><path stroke="#cccccc" stroke-width="1.0" stroke-linecap="butt" d="M48.5 176.5L581.5 176.5" fill-rule="nonzero"/><path stroke="#cccccc" stroke-width="1.0" stroke-linecap="butt" d="M48.5 114.5L581.5 114.5" fill-rule="nonzero"/><path stroke="#cccccc" stroke-width="1.0" stroke-linecap="butt" d="M48.5 51.5L581.5 51.5" fill-rule="nonzero"/><clipPath id="id_0"><path d="M48.55 51.916668L581.45 51.916668L581.45 300.45L48.55 300.45L48.55 51.916668Z" clip-rule="nonzero"/></clipPath><path fill="#ea4335" clip-path="url(#id_0)" d="M107.84 201.03667C107.84 204.35037 105.15371 207.03667 101.84 207.03667C98.52629 207.03667 95.84 204.35037 95.84 201.03667C95.84 197.72296 98.52629 195.03667 101.84 195.03667C105.15371 195.03667 107.84 197.72296 107.84 201.03667Z" fill-rule="nonzero"/><path fill="#ea4335" clip-path="url(#id_0)" d="M214.42 120.263336C214.42 123.57704 211.7337 126.263336 208.42 126.263336C205.1063 126.263336 202.42 123.57704 202.42 120.263336C202.42 116.94962 205.1063 114.263336 208.42 114.263336C211.7337 114.263336 214.42 116.94962 214.42 120.263336Z" fill-rule="nonzero"/><path fill="#ea4335" clip-path="url(#id_0)" d="M321.0 232.10333C321.0 235.41704 318.31372 238.10333 315.0 238.10333C311.68628 238.10333 309.0 235.41704 309.0 232.10333C309.0 228.78963 311.68628 226.10333 315.0 226.10333C318.31372 226.10333 321.0 228.78963 321.0 232.10333Z" fill-rule="nonzero"/><path fill="#ea4335" clip-path="url(#id_0)" d="M427.58 138.90334C427.58 142.21704 424.8937 144.90334 421.58 144.90334C418.2663 144.90334 415.58 142.21704 415.58 138.90334C415.58 135.58963 418.2663 132.90334 421.58 132.90334C424.8937 132.90334 427.58 135.58963 427.58 138.90334Z" fill-rule="nonzero"/><path fill="#ea4335" clip-path="url(#id_0)" d="M534.16 76.77C534.16 80.08371 531.4737 82.77 528.16 82.77C524.8463 82.77 522.16 80.08371 522.16 76.77C522.16 73.45629 524.8463 70.77 528.16 70.77C531.4737 70.77 534.16 73.45629 534.16 76.77Z" fill-rule="nonzero"/><path fill="#fbbc04" clip-path="url(#id_0)" d="M107.84 76.77C107.84 80.08371 105.15371 82.77 101.84 82.77C98.52629 82.77 95.84 80.08371 95.84 76.77C95.84 73.45629 98.52629 70.77 101.84 70.77C105.15371 70.77 107.84 73.45629 107.84 76.77Z" fill-rule="nonzero"/><path fill="#fbbc04" clip-path="url(#id_0)" d="M214.42 76.77C214.42 80.08371 211.7337 82.77 208.42 82.77C205.1063 82.77 202.42 80.08371 202.42 76.77C202.42 73.45629 205.1063 70.77 208.42 70.77C211.7337 70.77 214.42 73.45629 214.42 76.77Z" fill-rule="nonzero"/><path fill="#fbbc04" clip-path="url(#id_0)" d="M321.0 64.34333C321.0 67.65704 318.31372 70.34333 315.0 70.34333C311.68628 70.34333 309.0 67.65704 309.0 64.34333C309.0 61.029625 311.68628 58.343334 315.0 58.343334C318.31372 58.343334 321.0 61.029625 321.0 64.34333Z" fill-rule="nonzero"/><path fill="#fbbc04" clip-path="url(#id_0)" d="M427.58 58.13C427.58 61.44371 424.8937 64.13 421.58 64.13C418.2663 64.13 415.58 61.44371 415.58 58.13C415.58 54.81629 418.2663 52.13 421.58 52.13C424.8937 52.13 427.58 54.81629 427.58 58.13Z" fill-rule="nonzero"/><path fill="#fbbc04" clip-path="url(#id_0)" d="M534.16 263.17C534.16 266.4837 531.4737 269.17 528.16 269.17C524.8463 269.17 522.16 266.4837 522.16 263.17C522.16 259.8563 524.8463 257.17 528.16 257.17C531.4737 257.17 534.16 259.8563 534.16 263.17Z" fill-rule="nonzero"/><path fill="#4285f4" clip-path="url(#id_0)" d="M214.42 64.34333C214.42 67.65704 211.7337 70.34333 208.42 70.34333C205.1063 70.34333 202.42 67.65704 202.42 64.34333C202.42 61.029625 205.1063 58.343334 208.42 58.343334C211.7337 58.343334 214.42 61.029625 214.42 64.34333Z" fill-rule="nonzero"/><path fill="#4285f4" clip-path="url(#id_0)" d="M321.0 70.55666C321.0 73.87038 318.31372 76.55666 315.0 76.55666C311.68628 76.55666 309.0 73.87038 309.0 70.55666C309.0 67.24296 311.68628 64.55666 315.0 64.55666C318.31372 64.55666 321.0 67.24296 321.0 70.55666Z" fill-rule="nonzero"/><path fill="#4285f4" clip-path="url(#id_0)" d="M427.58 169.97C427.58 173.2837 424.8937 175.97 421.58 175.97C418.2663 175.97 415.58 173.2837 415.58 169.97C415.58 166.6563 418.2663 163.97 421.58 163.97C424.8937 163.97 427.58 166.6563 427.58 169.97Z" fill-rule="nonzero"/><path fill="#4285f4" clip-path="url(#id_0)" d="M534.16 188.61C534.16 191.9237 531.4737 194.61 528.16 194.61C524.8463 194.61 522.16 191.9237 522.16 188.61C522.16 185.2963 524.8463 182.61 528.16 182.61C531.4737 182.61 534.16 185.2963 534.16 188.61Z" fill-rule="nonzero"/><path fill="#34a853" clip-path="url(#id_0)" d="M214.42 201.03667C214.42 204.35037 211.7337 207.03667 208.42 207.03667C205.1063 207.03667 202.42 204.35037 202.42 201.03667C202.42 197.72296 205.1063 195.03667 208.42 195.03667C211.7337 195.03667 214.42 197.72296 214.42 201.03667Z" fill-rule="nonzero"/><path fill="#34a853" clip-path="url(#id_0)" d="M321.0 76.77C321.0 80.08371 318.31372 82.77 315.0 82.77C311.68628 82.77 309.0 80.08371 309.0 76.77C309.0 73.45629 311.68628 70.77 315.0 70.77C318.31372 70.77 321.0 73.45629 321.0 76.77Z" fill-rule="nonzero"/><path fill="#000000" d="M292.25 347.90314L292.0625 349.16876Q291.92188 350.0594 291.07812 350.0594L288.54688 350.0594Q287.70312 350.0594 287.70312 349.2625L287.70312 345.04376L286.15625 345.04376L286.15625 346.16876Q286.15625 349.45 282.17188 350.52814L281.75 349.45Q285.21875 348.65314 285.21875 345.84064L285.21875 345.04376L281.79688 345.04376L281.79688 344.15314L286.34375 344.15314L286.34375 339.8875L287.375 339.8875Q287.84375 339.98126 287.42188 340.2625L287.42188 344.15314L292.01562 344.15314L292.01562 345.04376L288.64062 345.04376L288.64062 348.79376Q288.64062 349.16876 288.96875 349.16876L290.60938 349.16876Q290.98438 349.16876 291.03125 348.84064L291.17188 347.6219L292.25 347.90314ZM288.45312 343.075Q289.20312 341.9969 289.67188 340.59064L290.75 341.2Q290.9375 341.3875 290.60938 341.4344Q290.14062 342.60626 289.4375 343.54376L288.45312 343.075ZM284.04688 343.4969Q283.53125 342.325 282.875 341.48126L283.90625 340.8719Q284.5625 341.66876 285.125 342.9344L284.04688 343.4969ZM302.14062 348.1844Q301.85938 346.45 301.8125 343.91876L300.45312 343.91876L300.45312 344.52814L301.39062 344.52814L301.39062 345.27814L300.45312 345.27814L300.45312 345.8875L301.34375 345.8875L301.34375 346.6375L300.45312 346.6375L300.45312 347.29376L301.4375 347.29376L301.4375 348.04376L300.45312 348.04376L300.45312 348.7469L301.48438 348.5594L301.57812 348.9344Q301.90625 348.60626 302.14062 348.1844ZM295.10938 344.9969L296.60938 344.95L296.1875 344.0594L296.75 343.825Q297.3125 344.71564 297.64062 345.60626L296.9375 345.8875L296.84375 345.5125L295.95312 345.5594L295.95312 350.52814L295.15625 350.52814L295.15625 345.65314L293.98438 345.7Q293.79688 346.1219 293.65625 345.65314L293.51562 344.9969L294.3125 344.9969L295.0625 343.6844L293.60938 342.5594L293.98438 341.95L294.3125 342.1844L295.53125 339.84064L296.14062 340.1219Q296.51562 340.2625 296.04688 340.45L294.875 342.5594L295.4375 343.02814L296.51562 341.15314L297.125 341.4344Q297.40625 341.6219 297.03125 341.71564L295.10938 344.9969ZM296.84375 346.40314Q297.3125 347.3875 297.45312 348.5125L296.70312 348.7Q296.60938 347.6219 296.1875 346.59064L296.84375 346.40314ZM294.54688 346.4969Q295.01562 346.54376 294.6875 346.825Q294.64062 348.3719 294.5 349.6844L293.65625 349.6375Q293.89062 348.325 293.9375 346.4969L294.54688 346.4969ZM302.60938 343.91876Q302.65625 345.5125 302.75 347.10626Q303.17188 346.16876 303.5 344.7625L304.15625 345.04376Q304.57812 345.23126 304.10938 345.41876Q303.6875 346.8719 302.9375 348.1844Q303.35938 349.3094 303.59375 349.3094Q303.78125 349.3094 303.92188 348.325L304.57812 348.65314Q304.34375 350.34064 303.78125 350.34064Q303.03125 350.34064 302.46875 348.98126Q301.8125 349.825 300.82812 350.4344L300.3125 349.8719Q301.01562 349.45 301.34375 349.16876Q299.60938 349.54376 297.64062 349.825Q297.45312 350.2 297.26562 349.825L297.03125 349.16876L298.625 349.02814L298.625 348.04376L297.59375 348.04376L297.59375 347.29376L298.625 347.29376L298.625 346.6375L297.73438 346.6375L297.73438 345.8875L298.625 345.8875L298.625 345.27814L297.6875 345.27814L297.6875 344.52814L298.625 344.52814L298.625 343.91876L297.21875 343.91876L297.21875 343.16876L301.76562 343.16876L301.76562 340.075L302.51562 340.075Q302.89062 340.1219 302.5625 340.35626L302.5625 343.16876L304.39062 343.16876L304.39062 343.91876L302.60938 343.91876ZM303.40625 342.5125Q303.21875 341.95 302.84375 341.2469L303.45312 340.91876Q303.875 341.575 304.10938 342.1844L303.40625 342.5125ZM298.4375 341.95Q298.10938 342.5125 297.6875 342.98126L297.17188 342.5125Q298.15625 341.3875 298.4375 340.075L299.04688 340.21564Q299.42188 340.3094 299.04688 340.4969L298.71875 341.34064L299.23438 341.71564L298.85938 342.27814L298.4375 341.95ZM301.15625 342.7469Q300.73438 342.23126 300.3125 341.90314Q300.03125 342.46564 299.5625 343.02814L299.04688 342.60626Q299.89062 341.71564 300.26562 340.1219L300.82812 340.2625Q301.10938 340.35626 300.82812 340.45L300.54688 341.29376Q301.0625 341.6219 301.625 342.1844L301.15625 342.7469ZM299.79688 348.84064L299.79688 343.91876L299.28125 343.91876L299.28125 348.9344L299.79688 348.84064ZM310.76562 339.7L311.65625 339.7Q312.03125 339.7469 311.70312 339.98126L311.70312 340.91876L315.96875 340.91876L315.96875 341.8094L311.70312 341.8094L311.70312 342.7469L314.51562 342.7469L314.51562 348.5594L313.57812 348.5594L313.57812 348.1844L309.78125 348.1844L309.78125 348.65314L308.84375 348.65314L308.84375 342.7469L310.76562 342.7469L310.76562 341.8094L305.84375 341.8094L305.84375 340.91876L310.76562 340.91876L310.76562 339.7ZM313.57812 343.4969L309.78125 343.4969L309.78125 344.29376L313.57812 344.29376L313.57812 343.4969ZM313.57812 346.54376L309.78125 346.54376L309.78125 347.4344L313.57812 347.4344L313.57812 346.54376ZM313.57812 345.04376L309.78125 345.04376L309.78125 345.79376L313.57812 345.79376L313.57812 345.04376ZM306.59375 342.7469L307.48438 342.7469Q307.85938 342.79376 307.53125 343.02814L307.53125 349.16876L316.29688 349.16876L316.29688 350.0594L307.53125 350.0594L307.53125 350.52814L306.59375 350.52814L306.59375 342.7469ZM320.75 340.1219Q321.17188 340.35626 320.70312 340.40314Q319.71875 341.9969 318.3125 343.16876L317.70312 342.325Q319.15625 341.2 320.0 339.7L320.75 340.1219ZM321.07812 342.46564Q321.54688 342.7 320.98438 342.7469Q320.51562 343.59064 320.04688 344.29376L320.04688 350.4344L319.10938 350.4344L319.10938 345.41876Q318.59375 345.98126 318.07812 346.40314L317.5625 345.41876Q319.25 344.0594 320.1875 342.04376L321.07812 342.46564ZM324.96875 346.91876L324.96875 349.16876L328.39062 349.16876L328.39062 350.0594L320.60938 350.0594L320.60938 349.16876L324.03125 349.16876L324.03125 346.91876L321.21875 346.91876L321.21875 346.02814L327.78125 346.02814L327.78125 346.91876L324.96875 346.91876ZM328.10938 341.10626L321.125 341.10626L321.125 340.21564L328.10938 340.21564L328.10938 341.10626ZM323.04688 341.6219Q323.5625 341.85626 323.0 341.90314L322.0625 343.45Q322.71875 344.4344 323.23438 345.46564L322.0625 345.7469Q321.73438 344.4344 321.07812 343.54376L322.0625 341.3875L323.04688 341.6219ZM325.29688 341.575Q325.71875 341.7625 325.20312 341.85626L324.21875 343.40314Q325.15625 344.52814 325.67188 345.41876L324.5 345.7Q324.07812 344.71564 323.1875 343.4969L324.3125 341.3875L325.29688 341.575ZM327.64062 341.575Q328.15625 341.71564 327.59375 341.85626L326.5625 343.45Q327.40625 344.34064 328.01562 345.27814L326.98438 345.65314Q326.42188 344.6219 325.48438 343.54376L326.51562 341.4344L327.64062 341.575Z" fill-rule="nonzero"/><path fill="#000000" d="M336.875 349.45L336.875 348.52814Q336.14062 349.59064 334.89062 349.59064Q334.34375 349.59064 333.85938 349.3875Q333.39062 349.16876 333.15625 348.85626Q332.92188 348.52814 332.82812 348.0594Q332.76562 347.7625 332.76562 347.075L332.76562 343.23126L333.82812 343.23126L333.82812 346.6844Q333.82812 347.4969 333.89062 347.79376Q333.98438 348.2 334.29688 348.45Q334.625 348.6844 335.10938 348.6844Q335.57812 348.6844 335.98438 348.45Q336.40625 348.2 336.57812 347.77814Q336.76562 347.35626 336.76562 346.5594L336.76562 343.23126L337.8125 343.23126L337.8125 349.45L336.875 349.45ZM339.79688 349.45L339.79688 343.23126L340.73438 343.23126L340.73438 344.10626Q341.03125 343.6375 341.51562 343.3719Q342.0 343.09064 342.625 343.09064Q343.3125 343.09064 343.75 343.3719Q344.20312 343.65314 344.375 344.16876Q345.125 343.09064 346.29688 343.09064Q347.23438 343.09064 347.71875 343.60626Q348.21875 344.10626 348.21875 345.1844L348.21875 349.45L347.17188 349.45L347.17188 345.52814Q347.17188 344.90314 347.0625 344.6219Q346.96875 344.34064 346.70312 344.16876Q346.4375 343.9969 346.0625 343.9969Q345.40625 343.9969 344.96875 344.4344Q344.54688 344.8719 344.54688 345.84064L344.54688 349.45L343.48438 349.45L343.48438 345.40314Q343.48438 344.7 343.21875 344.35626Q342.96875 343.9969 342.39062 343.9969Q341.9375 343.9969 341.5625 344.23126Q341.1875 344.46564 341.01562 344.91876Q340.84375 345.3719 340.84375 346.21564L340.84375 349.45L339.79688 349.45Z" fill-rule="nonzero"/><path fill="#000000" d="M19.05 300.21564Q19.05 298.6844 19.3625 297.7625Q19.675 296.825 20.284374 296.325Q20.909374 295.825 21.846874 295.825Q22.534374 295.825 23.05 296.10626Q23.58125 296.3875 23.925 296.91876Q24.26875 297.4344 24.45625 298.1844Q24.64375 298.9344 24.64375 300.21564Q24.64375 301.73126 24.33125 302.65314Q24.034374 303.575 23.409374 304.09064Q22.8 304.59064 21.846874 304.59064Q20.6125 304.59064 19.89375 303.7Q19.05 302.6375 19.05 300.21564ZM20.128124 300.21564Q20.128124 302.325 20.628124 303.02814Q21.128124 303.73126 21.846874 303.73126Q22.58125 303.73126 23.065624 303.02814Q23.565624 302.325 23.565624 300.21564Q23.565624 298.09064 23.065624 297.40314Q22.58125 296.7 21.83125 296.7Q21.1125 296.7 20.675 297.3094Q20.128124 298.09064 20.128124 300.21564ZM26.64375 304.45L26.64375 303.2469L27.846874 303.2469L27.846874 304.45L26.64375 304.45ZM29.20625 302.46564L30.221874 302.3719Q30.346874 303.09064 30.70625 303.41876Q31.08125 303.73126 31.64375 303.73126Q32.128124 303.73126 32.4875 303.5125Q32.8625 303.27814 33.096874 302.91876Q33.33125 302.54376 33.4875 301.91876Q33.64375 301.27814 33.64375 300.6219Q33.64375 300.54376 33.64375 300.40314Q33.33125 300.90314 32.784374 301.23126Q32.2375 301.54376 31.596874 301.54376Q30.51875 301.54376 29.784374 300.77814Q29.05 299.9969 29.05 298.73126Q29.05 297.41876 29.815624 296.6219Q30.596874 295.825 31.753124 295.825Q32.58125 295.825 33.26875 296.27814Q33.971874 296.73126 34.33125 297.575Q34.690624 298.40314 34.690624 299.98126Q34.690624 301.6219 34.33125 302.60626Q33.9875 303.575 33.26875 304.09064Q32.565624 304.59064 31.628124 304.59064Q30.6125 304.59064 29.971874 304.04376Q29.33125 303.48126 29.20625 302.46564ZM33.51875 298.66876Q33.51875 297.7625 33.034374 297.23126Q32.565624 296.7 31.878124 296.7Q31.175 296.7 30.64375 297.27814Q30.128124 297.84064 30.128124 298.7625Q30.128124 299.575 30.628124 300.09064Q31.128124 300.60626 31.846874 300.60626Q32.58125 300.60626 33.05 300.09064Q33.51875 299.575 33.51875 298.66876ZM41.51875 297.96564L40.471874 298.04376Q40.33125 297.41876 40.08125 297.1375Q39.64375 296.6844 39.01875 296.6844Q38.51875 296.6844 38.128124 296.96564Q37.64375 297.34064 37.346874 298.04376Q37.065624 298.73126 37.05 300.0125Q37.425 299.4344 37.971874 299.15314Q38.534374 298.8719 39.14375 298.8719Q40.190624 298.8719 40.925 299.65314Q41.675 300.4344 41.675 301.65314Q41.675 302.46564 41.315624 303.16876Q40.971874 303.85626 40.3625 304.23126Q39.753124 304.59064 38.9875 304.59064Q37.659374 304.59064 36.83125 303.6219Q36.003124 302.65314 36.003124 300.4344Q36.003124 297.9344 36.925 296.8094Q37.721874 295.825 39.08125 295.825Q40.096874 295.825 40.7375 296.40314Q41.39375 296.96564 41.51875 297.96564ZM37.221874 301.66876Q37.221874 302.21564 37.440624 302.71564Q37.675 303.2 38.08125 303.46564Q38.503124 303.73126 38.971874 303.73126Q39.628124 303.73126 40.1125 303.2Q40.596874 302.65314 40.596874 301.73126Q40.596874 300.84064 40.1125 300.325Q39.64375 299.8094 38.925 299.8094Q38.20625 299.8094 37.70625 300.325Q37.221874 300.84064 37.221874 301.66876Z" fill-rule="nonzero"/><path fill="#000000" d="M19.05 238.08229Q19.05 236.55104 19.3625 235.62917Q19.675 234.69167 20.284374 234.19167Q20.909374 233.69167 21.846874 233.69167Q22.534374 233.69167 23.05 233.97292Q23.58125 234.25417 23.925 234.78542Q24.26875 235.30104 24.45625 236.05104Q24.64375 236.80104 24.64375 238.08229Q24.64375 239.59792 24.33125 240.51979Q24.034374 241.44167 23.409374 241.95729Q22.8 242.45729 21.846874 242.45729Q20.6125 242.45729 19.89375 241.56667Q19.05 240.50417 19.05 238.08229ZM20.128124 238.08229Q20.128124 240.19167 20.628124 240.89479Q21.128124 241.59792 21.846874 241.59792Q22.58125 241.59792 23.065624 240.89479Q23.565624 240.19167 23.565624 238.08229Q23.565624 235.95729 23.065624 235.26979Q22.58125 234.56667 21.83125 234.56667Q21.1125 234.56667 20.675 235.17604Q20.128124 235.95729 20.128124 238.08229ZM26.64375 242.31667L26.64375 241.11354L27.846874 241.11354L27.846874 242.31667L26.64375 242.31667ZM29.20625 240.33229L30.221874 240.23854Q30.346874 240.95729 30.70625 241.28542Q31.08125 241.59792 31.64375 241.59792Q32.128124 241.59792 32.4875 241.37917Q32.8625 241.14479 33.096874 240.78542Q33.33125 240.41042 33.4875 239.78542Q33.64375 239.14479 33.64375 238.48854Q33.64375 238.41042 33.64375 238.26979Q33.33125 238.76979 32.784374 239.09792Q32.2375 239.41042 31.596874 239.41042Q30.51875 239.41042 29.784374 238.64479Q29.05 237.86354 29.05 236.59792Q29.05 235.28542 29.815624 234.48854Q30.596874 233.69167 31.753124 233.69167Q32.58125 233.69167 33.26875 234.14479Q33.971874 234.59792 34.33125 235.44167Q34.690624 236.26979 34.690624 237.84792Q34.690624 239.48854 34.33125 240.47292Q33.9875 241.44167 33.26875 241.95729Q32.565624 242.45729 31.628124 242.45729Q30.6125 242.45729 29.971874 241.91042Q29.33125 241.34792 29.20625 240.33229ZM33.51875 236.53542Q33.51875 235.62917 33.034374 235.09792Q32.565624 234.56667 31.878124 234.56667Q31.175 234.56667 30.64375 235.14479Q30.128124 235.70729 30.128124 236.62917Q30.128124 237.44167 30.628124 237.95729Q31.128124 238.47292 31.846874 238.47292Q32.58125 238.47292 33.05 237.95729Q33.51875 237.44167 33.51875 236.53542ZM36.1125 234.84792L36.1125 233.83229L41.675 233.83229L41.675 234.66042Q40.8625 235.53542 40.05 236.98854Q39.253124 238.42604 38.815624 239.95729Q38.4875 241.03542 38.409374 242.31667L37.315624 242.31667Q37.33125 241.30104 37.70625 239.86354Q38.096874 238.42604 38.8 237.09792Q39.51875 235.76979 40.33125 234.84792L36.1125 234.84792Z" fill-rule="nonzero"/><path fill="#000000" d="M19.05 175.94896Q19.05 174.41771 19.3625 173.49583Q19.675 172.55833 20.284374 172.05833Q20.909374 171.55833 21.846874 171.55833Q22.534374 171.55833 23.05 171.83958Q23.58125 172.12083 23.925 172.65208Q24.26875 173.16771 24.45625 173.91771Q24.64375 174.66771 24.64375 175.94896Q24.64375 177.46458 24.33125 178.38646Q24.034374 179.30833 23.409374 179.82396Q22.8 180.32396 21.846874 180.32396Q20.6125 180.32396 19.89375 179.43333Q19.05 178.37083 19.05 175.94896ZM20.128124 175.94896Q20.128124 178.05833 20.628124 178.76146Q21.128124 179.46458 21.846874 179.46458Q22.58125 179.46458 23.065624 178.76146Q23.565624 178.05833 23.565624 175.94896Q23.565624 173.82396 23.065624 173.13646Q22.58125 172.43333 21.83125 172.43333Q21.1125 172.43333 20.675 173.04271Q20.128124 173.82396 20.128124 175.94896ZM26.64375 180.18333L26.64375 178.98021L27.846874 178.98021L27.846874 180.18333L26.64375 180.18333ZM29.20625 178.19896L30.221874 178.10521Q30.346874 178.82396 30.70625 179.15208Q31.08125 179.46458 31.64375 179.46458Q32.128124 179.46458 32.4875 179.24583Q32.8625 179.01146 33.096874 178.65208Q33.33125 178.27708 33.4875 177.65208Q33.64375 177.01146 33.64375 176.35521Q33.64375 176.27708 33.64375 176.13646Q33.33125 176.63646 32.784374 176.96458Q32.2375 177.27708 31.596874 177.27708Q30.51875 177.27708 29.784374 176.51146Q29.05 175.73021 29.05 174.46458Q29.05 173.15208 29.815624 172.35521Q30.596874 171.55833 31.753124 171.55833Q32.58125 171.55833 33.26875 172.01146Q33.971874 172.46458 34.33125 173.30833Q34.690624 174.13646 34.690624 175.71458Q34.690624 177.35521 34.33125 178.33958Q33.9875 179.30833 33.26875 179.82396Q32.565624 180.32396 31.628124 180.32396Q30.6125 180.32396 29.971874 179.77708Q29.33125 179.21458 29.20625 178.19896ZM33.51875 174.40208Q33.51875 173.49583 33.034374 172.96458Q32.565624 172.43333 31.878124 172.43333Q31.175 172.43333 30.64375 173.01146Q30.128124 173.57396 30.128124 174.49583Q30.128124 175.30833 30.628124 175.82396Q31.128124 176.33958 31.846874 176.33958Q32.58125 176.33958 33.05 175.82396Q33.51875 175.30833 33.51875 174.40208ZM37.675 175.52708Q37.01875 175.27708 36.690624 174.83958Q36.378124 174.38646 36.378124 173.77708Q36.378124 172.83958 37.05 172.19896Q37.7375 171.55833 38.846874 171.55833Q39.971874 171.55833 40.659374 172.21458Q41.346874 172.87083 41.346874 173.80833Q41.346874 174.40208 41.034374 174.83958Q40.721874 175.27708 40.08125 175.52708Q40.878124 175.77708 41.284374 176.35521Q41.690624 176.93333 41.690624 177.73021Q41.690624 178.82396 40.909374 179.57396Q40.14375 180.32396 38.8625 180.32396Q37.596874 180.32396 36.815624 179.57396Q36.034374 178.82396 36.034374 177.69896Q36.034374 176.85521 36.45625 176.29271Q36.89375 175.73021 37.675 175.52708ZM37.45625 173.73021Q37.45625 174.33958 37.846874 174.73021Q38.253124 175.12083 38.878124 175.12083Q39.4875 175.12083 39.878124 174.74583Q40.26875 174.35521 40.26875 173.79271Q40.26875 173.21458 39.8625 172.82396Q39.45625 172.41771 38.8625 172.41771Q38.253124 172.41771 37.846874 172.80833Q37.45625 173.19896 37.45625 173.73021ZM37.128124 177.69896Q37.128124 178.15208 37.33125 178.57396Q37.55 178.99583 37.971874 179.23021Q38.39375 179.46458 38.878124 179.46458Q39.628124 179.46458 40.1125 178.98021Q40.6125 178.49583 40.6125 177.74583Q40.6125 176.98021 40.1125 176.48021Q39.6125 175.98021 38.846874 175.98021Q38.096874 175.98021 37.6125 176.48021Q37.128124 176.96458 37.128124 177.69896Z" fill-rule="nonzero"/><path fill="#000000" d="M19.05 113.81563Q19.05 112.28438 19.3625 111.3625Q19.675 110.425 20.284374 109.925Q20.909374 109.425 21.846874 109.425Q22.534374 109.425 23.05 109.70625Q23.58125 109.9875 23.925 110.51875Q24.26875 111.03438 24.45625 111.78438Q24.64375 112.53438 24.64375 113.81563Q24.64375 115.33125 24.33125 116.25313Q24.034374 117.175 23.409374 117.69063Q22.8 118.19063 21.846874 118.19063Q20.6125 118.19063 19.89375 117.3Q19.05 116.2375 19.05 113.81563ZM20.128124 113.81563Q20.128124 115.925 20.628124 116.62813Q21.128124 117.33125 21.846874 117.33125Q22.58125 117.33125 23.065624 116.62813Q23.565624 115.925 23.565624 113.81563Q23.565624 111.69063 23.065624 111.00313Q22.58125 110.3 21.83125 110.3Q21.1125 110.3 20.675 110.90938Q20.128124 111.69063 20.128124 113.81563ZM26.64375 118.05L26.64375 116.84688L27.846874 116.84688L27.846874 118.05L26.64375 118.05ZM29.20625 116.06563L30.221874 115.97188Q30.346874 116.69063 30.70625 117.01875Q31.08125 117.33125 31.64375 117.33125Q32.128124 117.33125 32.4875 117.1125Q32.8625 116.87813 33.096874 116.51875Q33.33125 116.14375 33.4875 115.51875Q33.64375 114.87813 33.64375 114.22188Q33.64375 114.14375 33.64375 114.00313Q33.33125 114.50313 32.784374 114.83125Q32.2375 115.14375 31.596874 115.14375Q30.51875 115.14375 29.784374 114.37813Q29.05 113.59688 29.05 112.33125Q29.05 111.01875 29.815624 110.22188Q30.596874 109.425 31.753124 109.425Q32.58125 109.425 33.26875 109.87813Q33.971874 110.33125 34.33125 111.175Q34.690624 112.00313 34.690624 113.58125Q34.690624 115.22188 34.33125 116.20625Q33.9875 117.175 33.26875 117.69063Q32.565624 118.19063 31.628124 118.19063Q30.6125 118.19063 29.971874 117.64375Q29.33125 117.08125 29.20625 116.06563ZM33.51875 112.26875Q33.51875 111.3625 33.034374 110.83125Q32.565624 110.3 31.878124 110.3Q31.175 110.3 30.64375 110.87813Q30.128124 111.44063 30.128124 112.3625Q30.128124 113.175 30.628124 113.69063Q31.128124 114.20625 31.846874 114.20625Q32.58125 114.20625 33.05 113.69063Q33.51875 113.175 33.51875 112.26875ZM36.20625 116.06563L37.221874 115.97188Q37.346874 116.69063 37.70625 117.01875Q38.08125 117.33125 38.64375 117.33125Q39.128124 117.33125 39.4875 117.1125Q39.8625 116.87813 40.096874 116.51875Q40.33125 116.14375 40.4875 115.51875Q40.64375 114.87813 40.64375 114.22188Q40.64375 114.14375 40.64375 114.00313Q40.33125 114.50313 39.784374 114.83125Q39.2375 115.14375 38.596874 115.14375Q37.51875 115.14375 36.784374 114.37813Q36.05 113.59688 36.05 112.33125Q36.05 111.01875 36.815624 110.22188Q37.596874 109.425 38.753124 109.425Q39.58125 109.425 40.26875 109.87813Q40.971874 110.33125 41.33125 111.175Q41.690624 112.00313 41.690624 113.58125Q41.690624 115.22188 41.33125 116.20625Q40.9875 117.175 40.26875 117.69063Q39.565624 118.19063 38.628124 118.19063Q37.6125 118.19063 36.971874 117.64375Q36.33125 117.08125 36.20625 116.06563ZM40.51875 112.26875Q40.51875 111.3625 40.034374 110.83125Q39.565624 110.3 38.878124 110.3Q38.175 110.3 37.64375 110.87813Q37.128124 111.44063 37.128124 112.3625Q37.128124 113.175 37.628124 113.69063Q38.128124 114.20625 38.846874 114.20625Q39.58125 114.20625 40.05 113.69063Q40.51875 113.175 40.51875 112.26875Z" fill-rule="nonzero"/><path fill="#000000" d="M40.01875 55.916668L38.971874 55.916668L38.971874 49.197918Q38.58125 49.557293 37.95625 49.932293Q37.346874 50.291668 36.8625 50.463543L36.8625 49.447918Q37.7375 49.026043 38.39375 48.447918Q39.065624 47.854168 39.346874 47.291668L40.01875 47.291668L40.01875 55.916668Z" fill-rule="nonzero"/><path fill="#000000" d="M95.49625 315.46564L96.51187 315.3719Q96.63687 316.09064 96.99625 316.41876Q97.37125 316.73126 97.93375 316.73126Q98.41812 316.73126 98.7775 316.5125Q99.1525 316.27814 99.38687 315.91876Q99.62125 315.54376 99.7775 314.91876Q99.93375 314.27814 99.93375 313.6219Q99.93375 313.54376 99.93375 313.40314Q99.62125 313.90314 99.07437 314.23126Q98.5275 314.54376 97.88687 314.54376Q96.80875 314.54376 96.07437 313.77814Q95.34 312.9969 95.34 311.73126Q95.34 310.41876 96.10562 309.6219Q96.88687 308.825 98.04312 308.825Q98.87125 308.825 99.55875 309.27814Q100.26187 309.73126 100.62125 310.575Q100.98062 311.40314 100.98062 312.98126Q100.98062 314.6219 100.62125 315.60626Q100.2775 316.575 99.55875 317.09064Q98.85562 317.59064 97.91812 317.59064Q96.9025 317.59064 96.26187 317.04376Q95.62125 316.48126 95.49625 315.46564ZM99.80875 311.66876Q99.80875 310.7625 99.32437 310.23126Q98.85562 309.7 98.16812 309.7Q97.465 309.7 96.93375 310.27814Q96.41812 310.84064 96.41812 311.7625Q96.41812 312.575 96.91812 313.09064Q97.41812 313.60626 98.13687 313.60626Q98.87125 313.60626 99.34 313.09064Q99.80875 312.575 99.80875 311.66876ZM102.34 313.21564Q102.34 311.6844 102.6525 310.7625Q102.965 309.825 103.57437 309.325Q104.19937 308.825 105.13687 308.825Q105.82437 308.825 106.34 309.10626Q106.87125 309.3875 107.215 309.91876Q107.55875 310.4344 107.74625 311.1844Q107.93375 311.9344 107.93375 313.21564Q107.93375 314.73126 107.62125 315.65314Q107.32437 316.575 106.69937 317.09064Q106.09 317.59064 105.13687 317.59064Q103.9025 317.59064 103.18375 316.7Q102.34 315.6375 102.34 313.21564ZM103.41812 313.21564Q103.41812 315.325 103.91812 316.02814Q104.41812 316.73126 105.13687 316.73126Q105.87125 316.73126 106.35562 316.02814Q106.85562 315.325 106.85562 313.21564Q106.85562 311.09064 106.35562 310.40314Q105.87125 309.7 105.12125 309.7Q104.4025 309.7 103.965 310.3094Q103.41812 311.09064 103.41812 313.21564Z" fill-rule="nonzero"/><path fill="#000000" d="M203.545 312.79376Q202.88875 312.54376 202.56062 312.10626Q202.24812 311.65314 202.24812 311.04376Q202.24812 310.10626 202.92 309.46564Q203.6075 308.825 204.71687 308.825Q205.84187 308.825 206.52937 309.48126Q207.21687 310.1375 207.21687 311.075Q207.21687 311.66876 206.90437 312.10626Q206.59187 312.54376 205.95125 312.79376Q206.74812 313.04376 207.15437 313.6219Q207.56062 314.2 207.56062 314.9969Q207.56062 316.09064 206.77937 316.84064Q206.01375 317.59064 204.7325 317.59064Q203.46687 317.59064 202.68562 316.84064Q201.90437 316.09064 201.90437 314.96564Q201.90437 314.1219 202.32625 313.5594Q202.76375 312.9969 203.545 312.79376ZM203.32625 310.9969Q203.32625 311.60626 203.71687 311.9969Q204.12312 312.3875 204.74812 312.3875Q205.3575 312.3875 205.74812 312.0125Q206.13875 311.6219 206.13875 311.0594Q206.13875 310.48126 205.7325 310.09064Q205.32625 309.6844 204.7325 309.6844Q204.12312 309.6844 203.71687 310.075Q203.32625 310.46564 203.32625 310.9969ZM202.99812 314.96564Q202.99812 315.41876 203.20125 315.84064Q203.42 316.2625 203.84187 316.4969Q204.26375 316.73126 204.74812 316.73126Q205.49812 316.73126 205.9825 316.2469Q206.4825 315.7625 206.4825 315.0125Q206.4825 314.2469 205.9825 313.7469Q205.4825 313.2469 204.71687 313.2469Q203.96687 313.2469 203.4825 313.7469Q202.99812 314.23126 202.99812 314.96564ZM208.92 315.2L210.02937 315.10626Q210.15437 315.91876 210.59187 316.325Q211.045 316.73126 211.68562 316.73126Q212.43562 316.73126 212.96687 316.15314Q213.49812 315.575 213.49812 314.6375Q213.49812 313.73126 212.9825 313.21564Q212.4825 312.6844 211.65437 312.6844Q211.15437 312.6844 210.7325 312.91876Q210.32625 313.15314 210.09187 313.5125L209.1075 313.3875L209.93562 308.98126L214.21687 308.98126L214.21687 309.98126L210.77937 309.98126L210.32625 312.29376Q211.09187 311.7469 211.93562 311.7469Q213.06062 311.7469 213.82625 312.52814Q214.6075 313.3094 214.6075 314.54376Q214.6075 315.7 213.93562 316.5594Q213.1075 317.59064 211.68562 317.59064Q210.51375 317.59064 209.76375 316.9344Q209.02937 316.27814 208.92 315.2Z" fill-rule="nonzero"/><path fill="#000000" d="M308.5625 309.98126L308.5625 308.96564L314.125 308.96564L314.125 309.79376Q313.3125 310.66876 312.5 312.1219Q311.70312 313.5594 311.26562 315.09064Q310.9375 316.16876 310.85938 317.45L309.76562 317.45Q309.78125 316.4344 310.15625 314.9969Q310.54688 313.5594 311.25 312.23126Q311.96875 310.90314 312.78125 309.98126L308.5625 309.98126ZM315.5 315.2L316.60938 315.10626Q316.73438 315.91876 317.17188 316.325Q317.625 316.73126 318.26562 316.73126Q319.01562 316.73126 319.54688 316.15314Q320.07812 315.575 320.07812 314.6375Q320.07812 313.73126 319.5625 313.21564Q319.0625 312.6844 318.23438 312.6844Q317.73438 312.6844 317.3125 312.91876Q316.90625 313.15314 316.67188 313.5125L315.6875 313.3875L316.51562 308.98126L320.79688 308.98126L320.79688 309.98126L317.35938 309.98126L316.90625 312.29376Q317.67188 311.7469 318.51562 311.7469Q319.64062 311.7469 320.40625 312.52814Q321.1875 313.3094 321.1875 314.54376Q321.1875 315.7 320.51562 316.5594Q319.6875 317.59064 318.26562 317.59064Q317.09375 317.59064 316.34375 316.9344Q315.60938 316.27814 315.5 315.2Z" fill-rule="nonzero"/><path fill="#000000" d="M420.54874 310.96564L419.50186 311.04376Q419.36124 310.41876 419.11124 310.1375Q418.67374 309.6844 418.04874 309.6844Q417.54874 309.6844 417.1581 309.96564Q416.67374 310.34064 416.37686 311.04376Q416.0956 311.73126 416.08 313.0125Q416.455 312.4344 417.00186 312.15314Q417.56436 311.8719 418.17374 311.8719Q419.2206 311.8719 419.955 312.65314Q420.705 313.4344 420.705 314.65314Q420.705 315.46564 420.3456 316.16876Q420.00186 316.85626 419.3925 317.23126Q418.7831 317.59064 418.0175 317.59064Q416.68936 317.59064 415.86124 316.6219Q415.0331 315.65314 415.0331 313.4344Q415.0331 310.9344 415.955 309.8094Q416.75186 308.825 418.11124 308.825Q419.12686 308.825 419.7675 309.40314Q420.42374 309.96564 420.54874 310.96564ZM416.25186 314.66876Q416.25186 315.21564 416.4706 315.71564Q416.705 316.2 417.11124 316.46564Q417.5331 316.73126 418.00186 316.73126Q418.6581 316.73126 419.1425 316.2Q419.62686 315.65314 419.62686 314.73126Q419.62686 313.84064 419.1425 313.325Q418.67374 312.8094 417.955 312.8094Q417.23624 312.8094 416.73624 313.325Q416.25186 313.84064 416.25186 314.66876ZM422.08 315.2L423.18936 315.10626Q423.31436 315.91876 423.75186 316.325Q424.205 316.73126 424.8456 316.73126Q425.5956 316.73126 426.12686 316.15314Q426.6581 315.575 426.6581 314.6375Q426.6581 313.73126 426.1425 313.21564Q425.6425 312.6844 424.81436 312.6844Q424.31436 312.6844 423.8925 312.91876Q423.48624 313.15314 423.25186 313.5125L422.2675 313.3875L423.0956 308.98126L427.37686 308.98126L427.37686 309.98126L423.93936 309.98126L423.48624 312.29376Q424.25186 311.7469 425.0956 311.7469Q426.2206 311.7469 426.98624 312.52814Q427.7675 313.3094 427.7675 314.54376Q427.7675 315.7 427.0956 316.5594Q426.2675 317.59064 424.8456 317.59064Q423.67374 317.59064 422.92374 316.9344Q422.18936 316.27814 422.08 315.2Z" fill-rule="nonzero"/><path fill="#000000" d="M521.66 315.2L522.76935 315.10626Q522.89435 315.91876 523.33185 316.325Q523.785 316.73126 524.4256 316.73126Q525.1756 316.73126 525.70685 316.15314Q526.2381 315.575 526.2381 314.6375Q526.2381 313.73126 525.7225 313.21564Q525.2225 312.6844 524.39435 312.6844Q523.89435 312.6844 523.4725 312.91876Q523.0662 313.15314 522.83185 313.5125L521.8475 313.3875L522.6756 308.98126L526.95685 308.98126L526.95685 309.98126L523.51935 309.98126L523.0662 312.29376Q523.83185 311.7469 524.6756 311.7469Q525.8006 311.7469 526.5662 312.52814Q527.3475 313.3094 527.3475 314.54376Q527.3475 315.7 526.6756 316.5594Q525.8475 317.59064 524.4256 317.59064Q523.2537 317.59064 522.5037 316.9344Q521.76935 316.27814 521.66 315.2ZM528.66 315.2L529.76935 315.10626Q529.89435 315.91876 530.33185 316.325Q530.785 316.73126 531.4256 316.73126Q532.1756 316.73126 532.70685 316.15314Q533.2381 315.575 533.2381 314.6375Q533.2381 313.73126 532.7225 313.21564Q532.2225 312.6844 531.39435 312.6844Q530.89435 312.6844 530.4725 312.91876Q530.0662 313.15314 529.83185 313.5125L528.8475 313.3875L529.6756 308.98126L533.95685 308.98126L533.95685 309.98126L530.51935 309.98126L530.0662 312.29376Q530.83185 311.7469 531.6756 311.7469Q532.8006 311.7469 533.5662 312.52814Q534.3475 313.3094 534.3475 314.54376Q534.3475 315.7 533.6756 316.5594Q532.8475 317.59064 531.4256 317.59064Q530.2537 317.59064 529.5037 316.9344Q528.76935 316.27814 528.66 315.2Z" fill-rule="nonzero"/><path fill="#ea4335" d="M128.0 25.55C128.0 28.863708 125.313705 31.55 122.0 31.55C118.686295 31.55 116.0 28.863708 116.0 25.55C116.0 22.236292 118.686295 19.55 122.0 19.55C125.313705 19.55 128.0 22.236292 128.0 25.55Z" fill-rule="nonzero"/><path fill="#1a1a1a" d="M137.125 29.55Q139.60938 28.9875 141.20312 27.440624L138.8125 27.440624L138.71875 27.76875L137.78125 27.58125Q138.15625 26.26875 138.10938 25.003124L141.71875 25.003124L141.71875 24.159374L137.875 24.159374L137.875 23.409374L145.84375 23.409374L145.84375 25.753124L142.65625 25.753124L142.65625 26.690624L146.82812 26.690624L146.5 28.89375Q146.35938 29.878124 145.51562 29.878124L144.34375 29.878124L144.25 28.9875L145.1875 28.9875Q145.51562 28.9875 145.5625 28.659374L145.75 27.440624L142.65625 27.440624L142.65625 30.628124L141.71875 30.628124L141.71875 28.096874Q140.07812 29.878124 137.54688 30.4875L137.125 29.55ZM141.48438 22.6125Q142.46875 21.440624 142.84375 19.8L143.78125 20.08125Q143.96875 20.26875 143.64062 20.315624L143.45312 20.925L147.10938 20.925L147.10938 21.815624L145.0 21.815624L145.51562 22.70625L144.4375 22.9875L144.01562 21.815624L143.125 21.815624Q142.79688 22.51875 142.23438 23.128124L141.48438 22.6125ZM138.90625 20.925L141.76562 20.925L141.76562 21.815624L140.3125 21.815624L140.78125 22.753124L139.79688 22.9875L139.42188 21.815624L138.48438 21.815624Q137.92188 22.753124 137.26562 23.315624L136.60938 22.6125Q137.78125 21.534374 138.39062 19.846874L139.28125 20.175Q139.46875 20.3625 139.14062 20.409374L138.90625 20.925ZM142.65625 25.003124L144.90625 25.003124L144.90625 24.159374L142.65625 24.159374L142.65625 25.003124ZM139.04688 25.753124Q139.0 26.221874 138.95312 26.690624L141.71875 26.690624L141.71875 25.753124L139.04688 25.753124ZM158.82812 24.39375L158.82812 25.425L148.9375 25.425L148.9375 24.39375L158.82812 24.39375ZM170.96875 30.39375Q168.10938 29.26875 166.98438 26.503124Q166.1875 29.3625 162.48438 30.440624L161.96875 29.45625Q166.32812 28.33125 166.32812 24.534374L166.32812 22.70625L165.71875 22.70625Q165.10938 23.925 163.98438 25.05L163.1875 24.253124Q165.01562 22.425 165.57812 19.89375L166.65625 20.175Q166.84375 20.315624 166.51562 20.503124Q166.375 20.925 166.04688 21.815624L170.21875 21.815624L170.40625 21.628124L171.20312 22.284374Q171.39062 22.51875 171.01562 22.565624Q170.40625 24.065624 169.09375 25.89375L168.29688 25.190624Q169.42188 23.784374 169.79688 22.70625L167.40625 22.70625L167.40625 24.3Q167.40625 27.628124 171.4375 29.26875L170.96875 30.39375ZM164.125 26.175Q162.85938 27.58125 161.5 28.51875Q161.40625 28.89375 161.26562 28.70625L160.60938 27.721874Q162.20312 26.690624 163.46875 25.425L164.125 26.175ZM162.76562 23.315624Q162.0625 22.51875 161.07812 22.003124L161.78125 21.065624Q162.8125 21.534374 163.5625 22.284374L162.76562 23.315624ZM183.10938 24.440624L183.10938 25.33125L178.5625 25.33125L178.5625 30.440624L177.48438 30.440624L177.48438 25.33125L172.9375 25.33125L172.9375 24.440624L177.48438 24.440624L177.48438 21.628124L173.82812 21.628124L173.82812 20.7375L182.17188 20.7375L182.17188 21.628124L178.5625 21.628124L178.5625 24.440624L183.10938 24.440624ZM194.82812 26.315624Q195.10938 26.55 194.64062 26.596874Q192.8125 30.4875 188.17188 30.4875L187.89062 29.45625Q192.39062 29.596874 193.89062 25.659374L194.82812 26.315624ZM191.92188 19.8Q192.29688 19.846874 191.96875 20.08125L191.96875 21.39375L194.45312 21.39375L194.45312 22.284374L191.96875 22.284374L191.96875 23.55L195.10938 23.55L195.10938 24.440624L191.82812 24.440624L191.96875 24.4875Q192.29688 24.628124 191.96875 24.76875L191.96875 27.675Q191.96875 28.33125 191.3125 28.33125L190.42188 28.33125L190.23438 27.3L190.84375 27.3Q191.03125 27.3 191.03125 27.1125L191.03125 24.440624L187.5625 24.440624L187.5625 23.55L188.92188 23.55L188.92188 20.878124L189.8125 20.878124Q190.1875 20.925 189.85938 21.159374L189.85938 23.55L191.03125 23.55L191.03125 19.8L191.92188 19.8ZM186.15625 20.3625Q187.09375 20.7375 187.9375 21.440624L187.32812 22.284374Q186.4375 21.58125 185.64062 21.159374L186.15625 20.3625ZM187.23438 26.55Q186.53125 28.70625 185.73438 30.1125Q185.82812 30.4875 185.54688 30.3L184.75 29.503124Q185.6875 28.190624 186.39062 26.034374L187.23438 26.55ZM185.59375 22.940624Q186.625 23.503124 187.23438 24.20625L186.57812 25.05Q185.92188 24.39375 184.98438 23.784374L185.59375 22.940624ZM190.1875 25.33125Q190.51562 25.565624 190.04688 25.6125Q189.34375 26.971874 188.21875 28.096874L187.65625 27.253124Q188.78125 26.175 189.34375 24.8625L190.1875 25.33125Z" fill-rule="nonzero"/><path fill="#fbbc04" d="M224.0 25.55C224.0 28.863708 221.3137 31.55 218.0 31.55C214.6863 31.55 212.0 28.863708 212.0 25.55C212.0 22.236292 214.6863 19.55 218.0 19.55C221.3137 19.55 224.0 22.236292 224.0 25.55Z" fill-rule="nonzero"/><path fill="#1a1a1a" d="M233.125 29.55Q235.60938 28.9875 237.20312 27.440624L234.8125 27.440624L234.71875 27.76875L233.78125 27.58125Q234.15625 26.26875 234.10938 25.003124L237.71875 25.003124L237.71875 24.159374L233.875 24.159374L233.875 23.409374L241.84375 23.409374L241.84375 25.753124L238.65625 25.753124L238.65625 26.690624L242.82812 26.690624L242.5 28.89375Q242.35938 29.878124 241.51562 29.878124L240.34375 29.878124L240.25 28.9875L241.1875 28.9875Q241.51562 28.9875 241.5625 28.659374L241.75 27.440624L238.65625 27.440624L238.65625 30.628124L237.71875 30.628124L237.71875 28.096874Q236.07812 29.878124 233.54688 30.4875L233.125 29.55ZM237.48438 22.6125Q238.46875 21.440624 238.84375 19.8L239.78125 20.08125Q239.96875 20.26875 239.64062 20.315624L239.45312 20.925L243.10938 20.925L243.10938 21.815624L241.0 21.815624L241.51562 22.70625L240.4375 22.9875L240.01562 21.815624L239.125 21.815624Q238.79688 22.51875 238.23438 23.128124L237.48438 22.6125ZM234.90625 20.925L237.76562 20.925L237.76562 21.815624L236.3125 21.815624L236.78125 22.753124L235.79688 22.9875L235.42188 21.815624L234.48438 21.815624Q233.92188 22.753124 233.26562 23.315624L232.60938 22.6125Q233.78125 21.534374 234.39062 19.846874L235.28125 20.175Q235.46875 20.3625 235.14062 20.409374L234.90625 20.925ZM238.65625 25.003124L240.90625 25.003124L240.90625 24.159374L238.65625 24.159374L238.65625 25.003124ZM235.04688 25.753124Q235.0 26.221874 234.95312 26.690624L237.71875 26.690624L237.71875 25.753124L235.04688 25.753124ZM253.84375 21.4875L253.84375 22.51875L246.15625 22.51875L246.15625 21.4875L253.84375 21.4875ZM255.01562 27.8625L255.01562 28.89375L244.89062 28.89375L244.89062 27.8625L255.01562 27.8625ZM266.96875 30.39375Q264.10938 29.26875 262.98438 26.503124Q262.1875 29.3625 258.48438 30.440624L257.96875 29.45625Q262.32812 28.33125 262.32812 24.534374L262.32812 22.70625L261.71875 22.70625Q261.10938 23.925 259.98438 25.05L259.1875 24.253124Q261.01562 22.425 261.57812 19.89375L262.65625 20.175Q262.84375 20.315624 262.51562 20.503124Q262.375 20.925 262.04688 21.815624L266.21875 21.815624L266.40625 21.628124L267.20312 22.284374Q267.39062 22.51875 267.01562 22.565624Q266.40625 24.065624 265.09375 25.89375L264.29688 25.190624Q265.42188 23.784374 265.79688 22.70625L263.40625 22.70625L263.40625 24.3Q263.40625 27.628124 267.4375 29.26875L266.96875 30.39375ZM260.125 26.175Q258.85938 27.58125 257.5 28.51875Q257.40625 28.89375 257.26562 28.70625L256.60938 27.721874Q258.20312 26.690624 259.46875 25.425L260.125 26.175ZM258.76562 23.315624Q258.0625 22.51875 257.07812 22.003124L257.78125 21.065624Q258.8125 21.534374 259.5625 22.284374L258.76562 23.315624ZM279.10938 24.440624L279.10938 25.33125L274.5625 25.33125L274.5625 30.440624L273.48438 30.440624L273.48438 25.33125L268.9375 25.33125L268.9375 24.440624L273.48438 24.440624L273.48438 21.628124L269.82812 21.628124L269.82812 20.7375L278.17188 20.7375L278.17188 21.628124L274.5625 21.628124L274.5625 24.440624L279.10938 24.440624ZM290.82812 26.315624Q291.10938 26.55 290.64062 26.596874Q288.8125 30.4875 284.17188 30.4875L283.89062 29.45625Q288.39062 29.596874 289.89062 25.659374L290.82812 26.315624ZM287.92188 19.8Q288.29688 19.846874 287.96875 20.08125L287.96875 21.39375L290.45312 21.39375L290.45312 22.284374L287.96875 22.284374L287.96875 23.55L291.10938 23.55L291.10938 24.440624L287.82812 24.440624L287.96875 24.4875Q288.29688 24.628124 287.96875 24.76875L287.96875 27.675Q287.96875 28.33125 287.3125 28.33125L286.42188 28.33125L286.23438 27.3L286.84375 27.3Q287.03125 27.3 287.03125 27.1125L287.03125 24.440624L283.5625 24.440624L283.5625 23.55L284.92188 23.55L284.92188 20.878124L285.8125 20.878124Q286.1875 20.925 285.85938 21.159374L285.85938 23.55L287.03125 23.55L287.03125 19.8L287.92188 19.8ZM282.15625 20.3625Q283.09375 20.7375 283.9375 21.440624L283.32812 22.284374Q282.4375 21.58125 281.64062 21.159374L282.15625 20.3625ZM283.23438 26.55Q282.53125 28.70625 281.73438 30.1125Q281.82812 30.4875 281.54688 30.3L280.75 29.503124Q281.6875 28.190624 282.39062 26.034374L283.23438 26.55ZM281.59375 22.940624Q282.625 23.503124 283.23438 24.20625L282.57812 25.05Q281.92188 24.39375 280.98438 23.784374L281.59375 22.940624ZM286.1875 25.33125Q286.51562 25.565624 286.04688 25.6125Q285.34375 26.971874 284.21875 28.096874L283.65625 27.253124Q284.78125 26.175 285.34375 24.8625L286.1875 25.33125Z" fill-rule="nonzero"/><path fill="#4285f4" d="M320.0 25.55C320.0 28.863708 317.31372 31.55 314.0 31.55C310.68628 31.55 308.0 28.863708 308.0 25.55C308.0 22.236292 310.68628 19.55 314.0 19.55C317.31372 19.55 320.0 22.236292 320.0 25.55Z" fill-rule="nonzero"/><path fill="#1a1a1a" d="M329.125 29.55Q331.60938 28.9875 333.20312 27.440624L330.8125 27.440624L330.71875 27.76875L329.78125 27.58125Q330.15625 26.26875 330.10938 25.003124L333.71875 25.003124L333.71875 24.159374L329.875 24.159374L329.875 23.409374L337.84375 23.409374L337.84375 25.753124L334.65625 25.753124L334.65625 26.690624L338.82812 26.690624L338.5 28.89375Q338.35938 29.878124 337.51562 29.878124L336.34375 29.878124L336.25 28.9875L337.1875 28.9875Q337.51562 28.9875 337.5625 28.659374L337.75 27.440624L334.65625 27.440624L334.65625 30.628124L333.71875 30.628124L333.71875 28.096874Q332.07812 29.878124 329.54688 30.4875L329.125 29.55ZM333.48438 22.6125Q334.46875 21.440624 334.84375 19.8L335.78125 20.08125Q335.96875 20.26875 335.64062 20.315624L335.45312 20.925L339.10938 20.925L339.10938 21.815624L337.0 21.815624L337.51562 22.70625L336.4375 22.9875L336.01562 21.815624L335.125 21.815624Q334.79688 22.51875 334.23438 23.128124L333.48438 22.6125ZM330.90625 20.925L333.76562 20.925L333.76562 21.815624L332.3125 21.815624L332.78125 22.753124L331.79688 22.9875L331.42188 21.815624L330.48438 21.815624Q329.92188 22.753124 329.26562 23.315624L328.60938 22.6125Q329.78125 21.534374 330.39062 19.846874L331.28125 20.175Q331.46875 20.3625 331.14062 20.409374L330.90625 20.925ZM334.65625 25.003124L336.90625 25.003124L336.90625 24.159374L334.65625 24.159374L334.65625 25.003124ZM331.04688 25.753124Q331.0 26.221874 330.95312 26.690624L333.71875 26.690624L333.71875 25.753124L331.04688 25.753124ZM350.21875 21.065624L350.21875 22.096874L341.82812 22.096874L341.82812 21.065624L350.21875 21.065624ZM349.5625 25.659374L342.4375 25.659374L342.4375 24.628124L349.5625 24.628124L349.5625 25.659374ZM340.9375 28.425L351.0625 28.425L351.0625 29.45625L340.9375 29.45625L340.9375 28.425ZM362.96875 30.39375Q360.10938 29.26875 358.98438 26.503124Q358.1875 29.3625 354.48438 30.440624L353.96875 29.45625Q358.32812 28.33125 358.32812 24.534374L358.32812 22.70625L357.71875 22.70625Q357.10938 23.925 355.98438 25.05L355.1875 24.253124Q357.01562 22.425 357.57812 19.89375L358.65625 20.175Q358.84375 20.315624 358.51562 20.503124Q358.375 20.925 358.04688 21.815624L362.21875 21.815624L362.40625 21.628124L363.20312 22.284374Q363.39062 22.51875 363.01562 22.565624Q362.40625 24.065624 361.09375 25.89375L360.29688 25.190624Q361.42188 23.784374 361.79688 22.70625L359.40625 22.70625L359.40625 24.3Q359.40625 27.628124 363.4375 29.26875L362.96875 30.39375ZM356.125 26.175Q354.85938 27.58125 353.5 28.51875Q353.40625 28.89375 353.26562 28.70625L352.60938 27.721874Q354.20312 26.690624 355.46875 25.425L356.125 26.175ZM354.76562 23.315624Q354.0625 22.51875 353.07812 22.003124L353.78125 21.065624Q354.8125 21.534374 355.5625 22.284374L354.76562 23.315624ZM375.10938 24.440624L375.10938 25.33125L370.5625 25.33125L370.5625 30.440624L369.48438 30.440624L369.48438 25.33125L364.9375 25.33125L364.9375 24.440624L369.48438 24.440624L369.48438 21.628124L365.82812 21.628124L365.82812 20.7375L374.17188 20.7375L374.17188 21.628124L370.5625 21.628124L370.5625 24.440624L375.10938 24.440624ZM386.82812 26.315624Q387.10938 26.55 386.64062 26.596874Q384.8125 30.4875 380.17188 30.4875L379.89062 29.45625Q384.39062 29.596874 385.89062 25.659374L386.82812 26.315624ZM383.92188 19.8Q384.29688 19.846874 383.96875 20.08125L383.96875 21.39375L386.45312 21.39375L386.45312 22.284374L383.96875 22.284374L383.96875 23.55L387.10938 23.55L387.10938 24.440624L383.82812 24.440624L383.96875 24.4875Q384.29688 24.628124 383.96875 24.76875L383.96875 27.675Q383.96875 28.33125 383.3125 28.33125L382.42188 28.33125L382.23438 27.3L382.84375 27.3Q383.03125 27.3 383.03125 27.1125L383.03125 24.440624L379.5625 24.440624L379.5625 23.55L380.92188 23.55L380.92188 20.878124L381.8125 20.878124Q382.1875 20.925 381.85938 21.159374L381.85938 23.55L383.03125 23.55L383.03125 19.8L383.92188 19.8ZM378.15625 20.3625Q379.09375 20.7375 379.9375 21.440624L379.32812 22.284374Q378.4375 21.58125 377.64062 21.159374L378.15625 20.3625ZM379.23438 26.55Q378.53125 28.70625 377.73438 30.1125Q377.82812 30.4875 377.54688 30.3L376.75 29.503124Q377.6875 28.190624 378.39062 26.034374L379.23438 26.55ZM377.59375 22.940624Q378.625 23.503124 379.23438 24.20625L378.57812 25.05Q377.92188 24.39375 376.98438 23.784374L377.59375 22.940624ZM382.1875 25.33125Q382.51562 25.565624 382.04688 25.6125Q381.34375 26.971874 380.21875 28.096874L379.65625 27.253124Q380.78125 26.175 381.34375 24.8625L382.1875 25.33125Z" fill-rule="nonzero"/><path fill="#34a853" d="M416.0 25.55C416.0 28.863708 413.31372 31.55 410.0 31.55C406.68628 31.55 404.0 28.863708 404.0 25.55C404.0 22.236292 406.68628 19.55 410.0 19.55C413.31372 19.55 416.0 22.236292 416.0 25.55Z" fill-rule="nonzero"/><path fill="#1a1a1a" d="M425.125 29.55Q427.60938 28.9875 429.20312 27.440624L426.8125 27.440624L426.71875 27.76875L425.78125 27.58125Q426.15625 26.26875 426.10938 25.003124L429.71875 25.003124L429.71875 24.159374L425.875 24.159374L425.875 23.409374L433.84375 23.409374L433.84375 25.753124L430.65625 25.753124L430.65625 26.690624L434.82812 26.690624L434.5 28.89375Q434.35938 29.878124 433.51562 29.878124L432.34375 29.878124L432.25 28.9875L433.1875 28.9875Q433.51562 28.9875 433.5625 28.659374L433.75 27.440624L430.65625 27.440624L430.65625 30.628124L429.71875 30.628124L429.71875 28.096874Q428.07812 29.878124 425.54688 30.4875L425.125 29.55ZM429.48438 22.6125Q430.46875 21.440624 430.84375 19.8L431.78125 20.08125Q431.96875 20.26875 431.64062 20.315624L431.45312 20.925L435.10938 20.925L435.10938 21.815624L433.0 21.815624L433.51562 22.70625L432.4375 22.9875L432.01562 21.815624L431.125 21.815624Q430.79688 22.51875 430.23438 23.128124L429.48438 22.6125ZM426.90625 20.925L429.76562 20.925L429.76562 21.815624L428.3125 21.815624L428.78125 22.753124L427.79688 22.9875L427.42188 21.815624L426.48438 21.815624Q425.92188 22.753124 425.26562 23.315624L424.60938 22.6125Q425.78125 21.534374 426.39062 19.846874L427.28125 20.175Q427.46875 20.3625 427.14062 20.409374L426.90625 20.925ZM430.65625 25.003124L432.90625 25.003124L432.90625 24.159374L430.65625 24.159374L430.65625 25.003124ZM427.04688 25.753124Q427.0 26.221874 426.95312 26.690624L429.71875 26.690624L429.71875 25.753124L427.04688 25.753124ZM438.20312 26.7375L438.20312 28.190624L445.70312 28.190624L445.70312 25.471874Q445.46875 26.7375 444.625 26.7375L443.26562 26.7375Q442.46875 26.7375 442.46875 25.89375L442.46875 22.05L441.01562 22.05L441.01562 23.83125Q441.01562 26.55 438.71875 27.4875L438.20312 26.7375ZM445.70312 25.003124L445.70312 22.05L443.40625 22.05L443.40625 25.471874Q443.40625 25.846874 443.73438 25.846874L444.20312 25.846874Q444.625 25.846874 444.76562 24.76875L445.70312 25.003124ZM446.64062 21.159374L446.64062 29.784374L445.70312 29.784374L445.70312 29.08125L438.20312 29.08125L438.20312 29.878124L437.26562 29.878124L437.26562 21.159374L446.64062 21.159374ZM438.20312 22.05L438.20312 26.55Q440.07812 25.940624 440.07812 23.690624L440.07812 22.05L438.20312 22.05ZM458.96875 30.39375Q456.10938 29.26875 454.98438 26.503124Q454.1875 29.3625 450.48438 30.440624L449.96875 29.45625Q454.32812 28.33125 454.32812 24.534374L454.32812 22.70625L453.71875 22.70625Q453.10938 23.925 451.98438 25.05L451.1875 24.253124Q453.01562 22.425 453.57812 19.89375L454.65625 20.175Q454.84375 20.315624 454.51562 20.503124Q454.375 20.925 454.04688 21.815624L458.21875 21.815624L458.40625 21.628124L459.20312 22.284374Q459.39062 22.51875 459.01562 22.565624Q458.40625 24.065624 457.09375 25.89375L456.29688 25.190624Q457.42188 23.784374 457.79688 22.70625L455.40625 22.70625L455.40625 24.3Q455.40625 27.628124 459.4375 29.26875L458.96875 30.39375ZM452.125 26.175Q450.85938 27.58125 449.5 28.51875Q449.40625 28.89375 449.26562 28.70625L448.60938 27.721874Q450.20312 26.690624 451.46875 25.425L452.125 26.175ZM450.76562 23.315624Q450.0625 22.51875 449.07812 22.003124L449.78125 21.065624Q450.8125 21.534374 451.5625 22.284374L450.76562 23.315624ZM471.10938 24.440624L471.10938 25.33125L466.5625 25.33125L466.5625 30.440624L465.48438 30.440624L465.48438 25.33125L460.9375 25.33125L460.9375 24.440624L465.48438 24.440624L465.48438 21.628124L461.82812 21.628124L461.82812 20.7375L470.17188 20.7375L470.17188 21.628124L466.5625 21.628124L466.5625 24.440624L471.10938 24.440624ZM482.82812 26.315624Q483.10938 26.55 482.64062 26.596874Q480.8125 30.4875 476.17188 30.4875L475.89062 29.45625Q480.39062 29.596874 481.89062 25.659374L482.82812 26.315624ZM479.92188 19.8Q480.29688 19.846874 479.96875 20.08125L479.96875 21.39375L482.45312 21.39375L482.45312 22.284374L479.96875 22.284374L479.96875 23.55L483.10938 23.55L483.10938 24.440624L479.82812 24.440624L479.96875 24.4875Q480.29688 24.628124 479.96875 24.76875L479.96875 27.675Q479.96875 28.33125 479.3125 28.33125L478.42188 28.33125L478.23438 27.3L478.84375 27.3Q479.03125 27.3 479.03125 27.1125L479.03125 24.440624L475.5625 24.440624L475.5625 23.55L476.92188 23.55L476.92188 20.878124L477.8125 20.878124Q478.1875 20.925 477.85938 21.159374L477.85938 23.55L479.03125 23.55L479.03125 19.8L479.92188 19.8ZM474.15625 20.3625Q475.09375 20.7375 475.9375 21.440624L475.32812 22.284374Q474.4375 21.58125 473.64062 21.159374L474.15625 20.3625ZM475.23438 26.55Q474.53125 28.70625 473.73438 30.1125Q473.82812 30.4875 473.54688 30.3L472.75 29.503124Q473.6875 28.190624 474.39062 26.034374L475.23438 26.55ZM473.59375 22.940624Q474.625 23.503124 475.23438 24.20625L474.57812 25.05Q473.92188 24.39375 472.98438 23.784374L473.59375 22.940624ZM478.1875 25.33125Q478.51562 25.565624 478.04688 25.6125Q477.34375 26.971874 476.21875 28.096874L475.65625 27.253124Q476.78125 26.175 477.34375 24.8625L478.1875 25.33125Z" fill-rule="nonzero"/></svg>