<svg version="1.1" viewBox="0.0 0.0 625.0 387.0" fill="none" stroke="none" stroke-linecap="square" stroke-miterlimit="10" width="625" height="387" xmlns:xlink="http://www.w3.org/1999/xlink" xmlns="http://www.w3.org/2000/svg"><path fill="#ffffff" d="M0 0L625.0 0L625.0 387.0L0 387.0L0 0Z" fill-rule="nonzero"/><path stroke="#cccccc" stroke-width="1.0" stroke-linecap="butt" d="M49.5 315.5L605.5 315.5" fill-rule="nonzero"/><path stroke="#cccccc" stroke-width="1.0" stroke-linecap="butt" d="M49.5 228.5L605.5 228.5" fill-rule="nonzero"/><path stroke="#cccccc" stroke-width="1.0" stroke-linecap="butt" d="M49.5 140.5L605.5 140.5" fill-rule="nonzero"/><path stroke="#cccccc" stroke-width="1.0" stroke-linecap="butt" d="M49.5 53.5L605.5 53.5" fill-rule="nonzero"/><clipPath id="id_0"><path d="M49.35 53.25L605.65 53.25L605.65 315.65L49.35 315.65L49.35 53.25Z" clip-rule="nonzero"/></clipPath><path fill="#ea4335" clip-path="url(#id_0)" d="M110.98 96.98333C110.98 100.29704 108.29371 102.98333 104.98 102.98333C101.66629 102.98333 98.98 100.29704 98.98 96.98333C98.98 93.669624 101.66629 90.98333 104.98 90.98333C108.29371 90.98333 110.98 93.669624 110.98 96.98333Z" fill-rule="nonzero"/><path fill="#ea4335" clip-path="url(#id_0)" d="M222.24 280.66333C222.24 283.97705 219.55371 286.66333 216.24 286.66333C212.92628 286.66333 210.24 283.97705 210.24 280.66333C210.24 277.34964 212.92628 274.66333 216.24 274.66333C219.55371 274.66333 222.24 277.34964 222.24 280.66333Z" fill-rule="nonzero"/><path fill="#ea4335" clip-path="url(#id_0)" d="M333.5 57.623333C333.5 60.937042 330.81372 63.623333 327.5 63.623333C324.18628 63.623333 321.5 60.937042 321.5 57.623333C321.5 54.309624 324.18628 51.623333 327.5 51.623333C330.81372 51.623333 333.5 54.309624 333.5 57.623333Z" fill-rule="nonzero"/><path fill="#ea4335" clip-path="url(#id_0)" d="M444.76 83.863335C444.76 87.17704 442.0737 89.863335 438.76 89.863335C435.4463 89.863335 432.76 87.17704 432.76 83.863335C432.76 80.54962 435.4463 77.863335 438.76 77.863335C442.0737 77.863335 444.76 80.54962 444.76 83.863335Z" fill-rule="nonzero"/><path fill="#ea4335" clip-path="url(#id_0)" d="M556.02 57.623333C556.02 60.937042 553.3337 63.623333 550.02 63.623333C546.7063 63.623333 544.02 60.937042 544.02 57.623333C544.02 54.309624 546.7063 51.623333 550.02 51.623333C553.3337 51.623333 556.02 54.309624 556.02 57.623333Z" fill-rule="nonzero"/><path fill="#fbbc04" clip-path="url(#id_0)" d="M110.98 57.623333C110.98 60.937042 108.29371 63.623333 104.98 63.623333C101.66629 63.623333 98.98 60.937042 98.98 57.623333C98.98 54.309624 101.66629 51.623333 104.98 51.623333C108.29371 51.623333 110.98 54.309624 110.98 57.623333Z" fill-rule="nonzero"/><path fill="#fbbc04" clip-path="url(#id_0)" d="M222.24 66.37C222.24 69.68371 219.55371 72.37 216.24 72.37C212.92628 72.37 210.24 69.68371 210.24 66.37C210.24 63.05629 212.92628 60.37 216.24 60.37C219.55371 60.37 222.24 63.05629 222.24 66.37Z" fill-rule="nonzero"/><path fill="#fbbc04" clip-path="url(#id_0)" d="M333.5 57.623333C333.5 60.937042 330.81372 63.623333 327.5 63.623333C324.18628 63.623333 321.5 60.937042 321.5 57.623333C321.5 54.309624 324.18628 51.623333 327.5 51.623333C330.81372 51.623333 333.5 54.309624 333.5 57.623333Z" fill-rule="nonzero"/><path fill="#fbbc04" clip-path="url(#id_0)" d="M444.76 57.623333C444.76 60.937042 442.0737 63.623333 438.76 63.623333C435.4463 63.623333 432.76 60.937042 432.76 57.623333C432.76 54.309624 435.4463 51.623333 438.76 51.623333C442.0737 51.623333 444.76 54.309624 444.76 57.623333Z" fill-rule="nonzero"/><path fill="#fbbc04" clip-path="url(#id_0)" d="M556.02 210.69C556.02 214.00371 553.3337 216.69 550.02 216.69C546.7063 216.69 544.02 214.00371 544.02 210.69C544.02 207.3763 546.7063 204.69 550.02 204.69C553.3337 204.69 556.02 207.3763 556.02 210.69Z" fill-rule="nonzero"/><path fill="#34a853" clip-path="url(#id_0)" d="M222.24 61.996666C222.24 65.31037 219.55371 67.996666 216.24 67.996666C212.92628 67.996666 210.24 65.31037 210.24 61.996666C210.24 58.682957 212.92628 55.996666 216.24 55.996666C219.55371 55.996666 222.24 58.682957 222.24 61.996666Z" fill-rule="nonzero"/><path fill="#34a853" clip-path="url(#id_0)" d="M333.5 61.996666C333.5 65.31037 330.81372 67.996666 327.5 67.996666C324.18628 67.996666 321.5 65.31037 321.5 61.996666C321.5 58.682957 324.18628 55.996666 327.5 55.996666C330.81372 55.996666 333.5 58.682957 333.5 61.996666Z" fill-rule="nonzero"/><path fill="#34a853" clip-path="url(#id_0)" d="M444.76 61.996666C444.76 65.31037 442.0737 67.996666 438.76 67.996666C435.4463 67.996666 432.76 65.31037 432.76 61.996666C432.76 58.682957 435.4463 55.996666 438.76 55.996666C442.0737 55.996666 444.76 58.682957 444.76 61.996666Z" fill-rule="nonzero"/><path fill="#34a853" clip-path="url(#id_0)" d="M556.02 232.55667C556.02 235.87038 553.3337 238.55667 550.02 238.55667C546.7063 238.55667 544.02 235.87038 544.02 232.55667C544.02 229.24297 546.7063 226.55667 550.02 226.55667C553.3337 226.55667 556.02 229.24297 556.02 232.55667Z" fill-rule="nonzero"/><path fill="#4285f4" clip-path="url(#id_0)" d="M222.24 149.46333C222.24 152.77704 219.55371 155.46333 216.24 155.46333C212.92628 155.46333 210.24 152.77704 210.24 149.46333C210.24 146.14963 212.92628 143.46333 216.24 143.46333C219.55371 143.46333 222.24 146.14963 222.24 149.46333Z" fill-rule="nonzero"/><path fill="#4285f4" clip-path="url(#id_0)" d="M333.5 66.37C333.5 69.68371 330.81372 72.37 327.5 72.37C324.18628 72.37 321.5 69.68371 321.5 66.37C321.5 63.05629 324.18628 60.37 327.5 60.37C330.81372 60.37 333.5 63.05629 333.5 66.37Z" fill-rule="nonzero"/><path fill="#000000" d="M304.75 363.10312L304.5625 364.36874Q304.42188 365.25937 303.57812 365.25937L301.04688 365.25937Q300.20312 365.25937 300.20312 364.4625L300.20312 360.24374L298.65625 360.24374L298.65625 361.36874Q298.65625 364.65 294.67188 365.72812L294.25 364.65Q297.71875 363.85312 297.71875 361.04062L297.71875 360.24374L294.29688 360.24374L294.29688 359.35312L298.84375 359.35312L298.84375 355.0875L299.875 355.0875Q300.34375 355.18124 299.92188 355.4625L299.92188 359.35312L304.51562 359.35312L304.51562 360.24374L301.14062 360.24374L301.14062 363.99374Q301.14062 364.36874 301.46875 364.36874L303.10938 364.36874Q303.48438 364.36874 303.53125 364.04062L303.67188 362.82187L304.75 363.10312ZM300.95312 358.275Q301.70312 357.19687 302.17188 355.79062L303.25 356.4Q303.4375 356.5875 303.10938 356.63437Q302.64062 357.80624 301.9375 358.74374L300.95312 358.275ZM296.54688 358.69687Q296.03125 357.525 295.375 356.68124L296.40625 356.07187Q297.0625 356.86874 297.625 358.13437L296.54688 358.69687ZM314.64062 363.38437Q314.35938 361.65 314.3125 359.11874L312.95312 359.11874L312.95312 359.72812L313.89062 359.72812L313.89062 360.47812L312.95312 360.47812L312.95312 361.0875L313.84375 361.0875L313.84375 361.8375L312.95312 361.8375L312.95312 362.49374L313.9375 362.49374L313.9375 363.24374L312.95312 363.24374L312.95312 363.94687L313.98438 363.75937L314.07812 364.13437Q314.40625 363.80624 314.64062 363.38437ZM307.60938 360.19687L309.10938 360.15L308.6875 359.25937L309.25 359.025Q309.8125 359.91562 310.14062 360.80624L309.4375 361.0875L309.34375 360.7125L308.45312 360.75937L308.45312 365.72812L307.65625 365.72812L307.65625 360.85312L306.48438 360.9Q306.29688 361.32187 306.15625 360.85312L306.01562 360.19687L306.8125 360.19687L307.5625 358.88437L306.10938 357.75937L306.48438 357.15L306.8125 357.38437L308.03125 355.04062L308.64062 355.32187Q309.01562 355.4625 308.54688 355.65L307.375 357.75937L307.9375 358.22812L309.01562 356.35312L309.625 356.63437Q309.90625 356.82187 309.53125 356.91562L307.60938 360.19687ZM309.34375 361.60312Q309.8125 362.5875 309.95312 363.7125L309.20312 363.9Q309.10938 362.82187 308.6875 361.79062L309.34375 361.60312ZM307.04688 361.69687Q307.51562 361.74374 307.1875 362.025Q307.14062 363.57187 307.0 364.88437L306.15625 364.8375Q306.39062 363.525 306.4375 361.69687L307.04688 361.69687ZM315.10938 359.11874Q315.15625 360.7125 315.25 362.30624Q315.67188 361.36874 316.0 359.9625L316.65625 360.24374Q317.07812 360.43124 316.60938 360.61874Q316.1875 362.07187 315.4375 363.38437Q315.85938 364.50937 316.09375 364.50937Q316.28125 364.50937 316.42188 363.525L317.07812 363.85312Q316.84375 365.54062 316.28125 365.54062Q315.53125 365.54062 314.96875 364.18124Q314.3125 365.025 313.32812 365.63437L312.8125 365.07187Q313.51562 364.65 313.84375 364.36874Q312.10938 364.74374 310.14062 365.025Q309.95312 365.4 309.76562 365.025L309.53125 364.36874L311.125 364.22812L311.125 363.24374L310.09375 363.24374L310.09375 362.49374L311.125 362.49374L311.125 361.8375L310.23438 361.8375L310.23438 361.0875L311.125 361.0875L311.125 360.47812L310.1875 360.47812L310.1875 359.72812L311.125 359.72812L311.125 359.11874L309.71875 359.11874L309.71875 358.36874L314.26562 358.36874L314.26562 355.275L315.01562 355.275Q315.39062 355.32187 315.0625 355.55624L315.0625 358.36874L316.89062 358.36874L316.89062 359.11874L315.10938 359.11874ZM315.90625 357.7125Q315.71875 357.15 315.34375 356.44687L315.95312 356.11874Q316.375 356.775 316.60938 357.38437L315.90625 357.7125ZM310.9375 357.15Q310.60938 357.7125 310.1875 358.18124L309.67188 357.7125Q310.65625 356.5875 310.9375 355.275L311.54688 355.41562Q311.92188 355.50937 311.54688 355.69687L311.21875 356.54062L311.73438 356.91562L311.35938 357.47812L310.9375 357.15ZM313.65625 357.94687Q313.23438 357.43124 312.8125 357.10312Q312.53125 357.66562 312.0625 358.22812L311.54688 357.80624Q312.39062 356.91562 312.76562 355.32187L313.32812 355.4625Q313.60938 355.55624 313.32812 355.65L313.04688 356.49374Q313.5625 356.82187 314.125 357.38437L313.65625 357.94687ZM312.29688 364.04062L312.29688 359.11874L311.78125 359.11874L311.78125 364.13437L312.29688 364.04062ZM323.26562 354.9L324.15625 354.9Q324.53125 354.94687 324.20312 355.18124L324.20312 356.11874L328.46875 356.11874L328.46875 357.00937L324.20312 357.00937L324.20312 357.94687L327.01562 357.94687L327.01562 363.75937L326.07812 363.75937L326.07812 363.38437L322.28125 363.38437L322.28125 363.85312L321.34375 363.85312L321.34375 357.94687L323.26562 357.94687L323.26562 357.00937L318.34375 357.00937L318.34375 356.11874L323.26562 356.11874L323.26562 354.9ZM326.07812 358.69687L322.28125 358.69687L322.28125 359.49374L326.07812 359.49374L326.07812 358.69687ZM326.07812 361.74374L322.28125 361.74374L322.28125 362.63437L326.07812 362.63437L326.07812 361.74374ZM326.07812 360.24374L322.28125 360.24374L322.28125 360.99374L326.07812 360.99374L326.07812 360.24374ZM319.09375 357.94687L319.98438 357.94687Q320.35938 357.99374 320.03125 358.22812L320.03125 364.36874L328.79688 364.36874L328.79688 365.25937L320.03125 365.25937L320.03125 365.72812L319.09375 365.72812L319.09375 357.94687ZM333.25 355.32187Q333.67188 355.55624 333.20312 355.60312Q332.21875 357.19687 330.8125 358.36874L330.20312 357.525Q331.65625 356.4 332.5 354.9L333.25 355.32187ZM333.57812 357.66562Q334.04688 357.9 333.48438 357.94687Q333.01562 358.79062 332.54688 359.49374L332.54688 365.63437L331.60938 365.63437L331.60938 360.61874Q331.09375 361.18124 330.57812 361.60312L330.0625 360.61874Q331.75 359.25937 332.6875 357.24374L333.57812 357.66562ZM337.46875 362.11874L337.46875 364.36874L340.89062 364.36874L340.89062 365.25937L333.10938 365.25937L333.10938 364.36874L336.53125 364.36874L336.53125 362.11874L333.71875 362.11874L333.71875 361.22812L340.28125 361.22812L340.28125 362.11874L337.46875 362.11874ZM340.60938 356.30624L333.625 356.30624L333.625 355.41562L340.60938 355.41562L340.60938 356.30624ZM335.54688 356.82187Q336.0625 357.05624 335.5 357.10312L334.5625 358.65Q335.21875 359.63437 335.73438 360.66562L334.5625 360.94687Q334.23438 359.63437 333.57812 358.74374L334.5625 356.5875L335.54688 356.82187ZM337.79688 356.775Q338.21875 356.9625 337.70312 357.05624L336.71875 358.60312Q337.65625 359.72812 338.17188 360.61874L337.0 360.9Q336.57812 359.91562 335.6875 358.69687L336.8125 356.5875L337.79688 356.775ZM340.14062 356.775Q340.65625 356.91562 340.09375 357.05624L339.0625 358.65Q339.90625 359.54062 340.51562 360.47812L339.48438 360.85312Q338.92188 359.82187 337.98438 358.74374L339.01562 356.63437L340.14062 356.775Z" fill-rule="nonzero"/><path fill="#000000" d="M349.375 364.65L349.375 363.72812Q348.64062 364.79062 347.39062 364.79062Q346.84375 364.79062 346.35938 364.5875Q345.89062 364.36874 345.65625 364.05624Q345.42188 363.72812 345.32812 363.25937Q345.26562 362.9625 345.26562 362.275L345.26562 358.43124L346.32812 358.43124L346.32812 361.88437Q346.32812 362.69687 346.39062 362.99374Q346.48438 363.4 346.79688 363.65Q347.125 363.88437 347.60938 363.88437Q348.07812 363.88437 348.48438 363.65Q348.90625 363.4 349.07812 362.97812Q349.26562 362.55624 349.26562 361.75937L349.26562 358.43124L350.3125 358.43124L350.3125 364.65L349.375 364.65ZM352.29688 364.65L352.29688 358.43124L353.23438 358.43124L353.23438 359.30624Q353.53125 358.8375 354.01562 358.57187Q354.5 358.29062 355.125 358.29062Q355.8125 358.29062 356.25 358.57187Q356.70312 358.85312 356.875 359.36874Q357.625 358.29062 358.79688 358.29062Q359.73438 358.29062 360.21875 358.80624Q360.71875 359.30624 360.71875 360.38437L360.71875 364.65L359.67188 364.65L359.67188 360.72812Q359.67188 360.10312 359.5625 359.82187Q359.46875 359.54062 359.20312 359.36874Q358.9375 359.19687 358.5625 359.19687Q357.90625 359.19687 357.46875 359.63437Q357.04688 360.07187 357.04688 361.04062L357.04688 364.65L355.98438 364.65L355.98438 360.60312Q355.98438 359.9 355.71875 359.55624Q355.46875 359.19687 354.89062 359.19687Q354.4375 359.19687 354.0625 359.43124Q353.6875 359.66562 353.51562 360.11874Q353.34375 360.57187 353.34375 361.41562L353.34375 364.65L352.29688 364.65Z" fill-rule="nonzero"/><path fill="#000000" d="M19.85 315.41562Q19.85 313.88437 20.1625 312.9625Q20.475 312.025 21.084375 311.525Q21.709375 311.025 22.646875 311.025Q23.334375 311.025 23.85 311.30624Q24.38125 311.5875 24.725 312.11874Q25.06875 312.63437 25.25625 313.38437Q25.44375 314.13437 25.44375 315.41562Q25.44375 316.93124 25.13125 317.85312Q24.834375 318.775 24.209375 319.29062Q23.6 319.79062 22.646875 319.79062Q21.4125 319.79062 20.69375 318.9Q19.85 317.8375 19.85 315.41562ZM20.928125 315.41562Q20.928125 317.525 21.428125 318.22812Q21.928125 318.93124 22.646875 318.93124Q23.38125 318.93124 23.865625 318.22812Q24.365625 317.525 24.365625 315.41562Q24.365625 313.29062 23.865625 312.60312Q23.38125 311.9 22.63125 311.9Q21.9125 311.9 21.475 312.50937Q20.928125 313.29062 20.928125 315.41562ZM27.44375 319.65L27.44375 318.44687L28.646875 318.44687L28.646875 319.65L27.44375 319.65ZM30.00625 317.66562L31.021875 317.57187Q31.146875 318.29062 31.50625 318.61874Q31.88125 318.93124 32.44375 318.93124Q32.928123 318.93124 33.2875 318.7125Q33.6625 318.47812 33.896873 318.11874Q34.13125 317.74374 34.2875 317.11874Q34.44375 316.47812 34.44375 315.82187Q34.44375 315.74374 34.44375 315.60312Q34.13125 316.10312 33.584373 316.43124Q33.0375 316.74374 32.396873 316.74374Q31.31875 316.74374 30.584375 315.97812Q29.85 315.19687 29.85 313.93124Q29.85 312.61874 30.615625 311.82187Q31.396875 311.025 32.553123 311.025Q33.38125 311.025 34.06875 311.47812Q34.771873 311.93124 35.13125 312.775Q35.490623 313.60312 35.490623 315.18124Q35.490623 316.82187 35.13125 317.80624Q34.7875 318.775 34.06875 319.29062Q33.365623 319.79062 32.428123 319.79062Q31.4125 319.79062 30.771875 319.24374Q30.13125 318.68124 30.00625 317.66562ZM34.31875 313.86874Q34.31875 312.9625 33.834373 312.43124Q33.365623 311.9 32.678123 311.9Q31.975 311.9 31.44375 312.47812Q30.928125 313.04062 30.928125 313.9625Q30.928125 314.775 31.428125 315.29062Q31.928125 315.80624 32.646873 315.80624Q33.38125 315.80624 33.85 315.29062Q34.31875 314.775 34.31875 313.86874ZM40.225 319.65L40.225 317.5875L36.50625 317.5875L36.50625 316.61874L40.428123 311.05624L41.2875 311.05624L41.2875 316.61874L42.44375 316.61874L42.44375 317.5875L41.2875 317.5875L41.2875 319.65L40.225 319.65ZM40.225 316.61874L40.225 312.75937L37.5375 316.61874L40.225 316.61874Z" fill-rule="nonzero"/><path fill="#000000" d="M19.85 227.94896Q19.85 226.41771 20.1625 225.49583Q20.475 224.55833 21.084375 224.05833Q21.709375 223.55833 22.646875 223.55833Q23.334375 223.55833 23.85 223.83958Q24.38125 224.12083 24.725 224.65208Q25.06875 225.16771 25.25625 225.91771Q25.44375 226.66771 25.44375 227.94896Q25.44375 229.46458 25.13125 230.38646Q24.834375 231.30833 24.209375 231.82396Q23.6 232.32396 22.646875 232.32396Q21.4125 232.32396 20.69375 231.43333Q19.85 230.37083 19.85 227.94896ZM20.928125 227.94896Q20.928125 230.05833 21.428125 230.76146Q21.928125 231.46458 22.646875 231.46458Q23.38125 231.46458 23.865625 230.76146Q24.365625 230.05833 24.365625 227.94896Q24.365625 225.82396 23.865625 225.13646Q23.38125 224.43333 22.63125 224.43333Q21.9125 224.43333 21.475 225.04271Q20.928125 225.82396 20.928125 227.94896ZM27.44375 232.18333L27.44375 230.98021L28.646875 230.98021L28.646875 232.18333L27.44375 232.18333ZM30.00625 230.19896L31.021875 230.10521Q31.146875 230.82396 31.50625 231.15208Q31.88125 231.46458 32.44375 231.46458Q32.928123 231.46458 33.2875 231.24583Q33.6625 231.01146 33.896873 230.65208Q34.13125 230.27708 34.2875 229.65208Q34.44375 229.01146 34.44375 228.35521Q34.44375 228.27708 34.44375 228.13646Q34.13125 228.63646 33.584373 228.96458Q33.0375 229.27708 32.396873 229.27708Q31.31875 229.27708 30.584375 228.51146Q29.85 227.73021 29.85 226.46458Q29.85 225.15208 30.615625 224.35521Q31.396875 223.55833 32.553123 223.55833Q33.38125 223.55833 34.06875 224.01146Q34.771873 224.46458 35.13125 225.30833Q35.490623 226.13646 35.490623 227.71458Q35.490623 229.35521 35.13125 230.33958Q34.7875 231.30833 34.06875 231.82396Q33.365623 232.32396 32.428123 232.32396Q31.4125 232.32396 30.771875 231.77708Q30.13125 231.21458 30.00625 230.19896ZM34.31875 226.40208Q34.31875 225.49583 33.834373 224.96458Q33.365623 224.43333 32.678123 224.43333Q31.975 224.43333 31.44375 225.01146Q30.928125 225.57396 30.928125 226.49583Q30.928125 227.30833 31.428125 227.82396Q31.928125 228.33958 32.646873 228.33958Q33.38125 228.33958 33.85 227.82396Q34.31875 227.30833 34.31875 226.40208ZM42.31875 225.69896L41.271873 225.77708Q41.13125 225.15208 40.88125 224.87083Q40.44375 224.41771 39.81875 224.41771Q39.31875 224.41771 38.928123 224.69896Q38.44375 225.07396 38.146873 225.77708Q37.865623 226.46458 37.85 227.74583Q38.225 227.16771 38.771873 226.88646Q39.334373 226.60521 39.94375 226.60521Q40.990623 226.60521 41.725 227.38646Q42.475 228.16771 42.475 229.38646Q42.475 230.19896 42.115623 230.90208Q41.771873 231.58958 41.1625 231.96458Q40.553123 232.32396 39.7875 232.32396Q38.459373 232.32396 37.63125 231.35521Q36.803123 230.38646 36.803123 228.16771Q36.803123 225.66771 37.725 224.54271Q38.521873 223.55833 39.88125 223.55833Q40.896873 223.55833 41.5375 224.13646Q42.19375 224.69896 42.31875 225.69896ZM38.021873 229.40208Q38.021873 229.94896 38.240623 230.44896Q38.475 230.93333 38.88125 231.19896Q39.303123 231.46458 39.771873 231.46458Q40.428123 231.46458 40.9125 230.93333Q41.396873 230.38646 41.396873 229.46458Q41.396873 228.57396 40.9125 228.05833Q40.44375 227.54271 39.725 227.54271Q39.00625 227.54271 38.50625 228.05833Q38.021873 228.57396 38.021873 229.40208Z" fill-rule="nonzero"/><path fill="#000000" d="M19.85 140.48228Q19.85 138.95103 20.1625 138.02916Q20.475 137.09166 21.084375 136.59166Q21.709375 136.09166 22.646875 136.09166Q23.334375 136.09166 23.85 136.37291Q24.38125 136.65416 24.725 137.18541Q25.06875 137.70103 25.25625 138.45103Q25.44375 139.20103 25.44375 140.48228Q25.44375 141.99791 25.13125 142.91978Q24.834375 143.84166 24.209375 144.35728Q23.6 144.85728 22.646875 144.85728Q21.4125 144.85728 20.69375 143.96666Q19.85 142.90416 19.85 140.48228ZM20.928125 140.48228Q20.928125 142.59166 21.428125 143.29478Q21.928125 143.99791 22.646875 143.99791Q23.38125 143.99791 23.865625 143.29478Q24.365625 142.59166 24.365625 140.48228Q24.365625 138.35728 23.865625 137.66978Q23.38125 136.96666 22.63125 136.96666Q21.9125 136.96666 21.475 137.57603Q20.928125 138.35728 20.928125 140.48228ZM27.44375 144.71666L27.44375 143.51353L28.646875 143.51353L28.646875 144.71666L27.44375 144.71666ZM30.00625 142.73228L31.021875 142.63853Q31.146875 143.35728 31.50625 143.68541Q31.88125 143.99791 32.44375 143.99791Q32.928123 143.99791 33.2875 143.77916Q33.6625 143.54478 33.896873 143.18541Q34.13125 142.81041 34.2875 142.18541Q34.44375 141.54478 34.44375 140.88853Q34.44375 140.81041 34.44375 140.66978Q34.13125 141.16978 33.584373 141.49791Q33.0375 141.81041 32.396873 141.81041Q31.31875 141.81041 30.584375 141.04478Q29.85 140.26353 29.85 138.99791Q29.85 137.68541 30.615625 136.88853Q31.396875 136.09166 32.553123 136.09166Q33.38125 136.09166 34.06875 136.54478Q34.771873 136.99791 35.13125 137.84166Q35.490623 138.66978 35.490623 140.24791Q35.490623 141.88853 35.13125 142.87291Q34.7875 143.84166 34.06875 144.35728Q33.365623 144.85728 32.428123 144.85728Q31.4125 144.85728 30.771875 144.31041Q30.13125 143.74791 30.00625 142.73228ZM34.31875 138.93541Q34.31875 138.02916 33.834373 137.49791Q33.365623 136.96666 32.678123 136.96666Q31.975 136.96666 31.44375 137.54478Q30.928125 138.10728 30.928125 139.02916Q30.928125 139.84166 31.428125 140.35728Q31.928125 140.87291 32.646873 140.87291Q33.38125 140.87291 33.85 140.35728Q34.31875 139.84166 34.31875 138.93541ZM38.475 140.06041Q37.81875 139.81041 37.490623 139.37291Q37.178123 138.91978 37.178123 138.31041Q37.178123 137.37291 37.85 136.73228Q38.5375 136.09166 39.646873 136.09166Q40.771873 136.09166 41.459373 136.74791Q42.146873 137.40416 42.146873 138.34166Q42.146873 138.93541 41.834373 139.37291Q41.521873 139.81041 40.88125 140.06041Q41.678123 140.31041 42.084373 140.88853Q42.490623 141.46666 42.490623 142.26353Q42.490623 143.35728 41.709373 144.10728Q40.94375 144.85728 39.6625 144.85728Q38.396873 144.85728 37.615623 144.10728Q36.834373 143.35728 36.834373 142.23228Q36.834373 141.38853 37.25625 140.82603Q37.69375 140.26353 38.475 140.06041ZM38.25625 138.26353Q38.25625 138.87291 38.646873 139.26353Q39.053123 139.65416 39.678123 139.65416Q40.2875 139.65416 40.678123 139.27916Q41.06875 138.88853 41.06875 138.32603Q41.06875 137.74791 40.6625 137.35728Q40.25625 136.95103 39.6625 136.95103Q39.053123 136.95103 38.646873 137.34166Q38.25625 137.73228 38.25625 138.26353ZM37.928123 142.23228Q37.928123 142.68541 38.13125 143.10728Q38.35 143.52916 38.771873 143.76353Q39.19375 143.99791 39.678123 143.99791Q40.428123 143.99791 40.9125 143.51353Q41.4125 143.02916 41.4125 142.27916Q41.4125 141.51353 40.9125 141.01353Q40.4125 140.51353 39.646873 140.51353Q38.896873 140.51353 38.4125 141.01353Q37.928123 141.49791 37.928123 142.23228Z" fill-rule="nonzero"/><path fill="#000000" d="M40.81875 57.25L39.771873 57.25L39.771873 50.53125Q39.38125 50.890625 38.75625 51.265625Q38.146873 51.625 37.6625 51.796875L37.6625 50.78125Q38.5375 50.359375 39.19375 49.78125Q39.865623 49.1875 40.146873 48.625L40.81875 48.625L40.81875 57.25Z" fill-rule="nonzero"/><path fill="#000000" d="M98.63625 330.66562L99.65188 330.57187Q99.77688 331.29062 100.13625 331.61874Q100.51125 331.93124 101.07375 331.93124Q101.55813 331.93124 101.9175 331.7125Q102.2925 331.47812 102.52688 331.11874Q102.76125 330.74374 102.9175 330.11874Q103.07375 329.47812 103.07375 328.82187Q103.07375 328.74374 103.07375 328.60312Q102.76125 329.10312 102.21438 329.43124Q101.6675 329.74374 101.02688 329.74374Q99.94875 329.74374 99.21438 328.97812Q98.48 328.19687 98.48 326.93124Q98.48 325.61874 99.24563 324.82187Q100.02688 324.025 101.18313 324.025Q102.01125 324.025 102.69875 324.47812Q103.40188 324.93124 103.76125 325.775Q104.12063 326.60312 104.12063 328.18124Q104.12063 329.82187 103.76125 330.80624Q103.4175 331.775 102.69875 332.29062Q101.99563 332.79062 101.05813 332.79062Q100.0425 332.79062 99.40188 332.24374Q98.76125 331.68124 98.63625 330.66562ZM102.94875 326.86874Q102.94875 325.9625 102.46438 325.43124Q101.99563 324.9 101.30813 324.9Q100.605 324.9 100.07375 325.47812Q99.55813 326.04062 99.55813 326.9625Q99.55813 327.775 100.05813 328.29062Q100.55813 328.80624 101.27688 328.80624Q102.01125 328.80624 102.48 328.29062Q102.94875 327.775 102.94875 326.86874ZM105.48 328.41562Q105.48 326.88437 105.7925 325.9625Q106.105 325.025 106.71438 324.525Q107.33938 324.025 108.27688 324.025Q108.96438 324.025 109.48 324.30624Q110.01125 324.5875 110.355 325.11874Q110.69875 325.63437 110.88625 326.38437Q111.07375 327.13437 111.07375 328.41562Q111.07375 329.93124 110.76125 330.85312Q110.46438 331.775 109.83938 332.29062Q109.23 332.79062 108.27688 332.79062Q107.0425 332.79062 106.32375 331.9Q105.48 330.8375 105.48 328.41562ZM106.55813 328.41562Q106.55813 330.525 107.05813 331.22812Q107.55813 331.93124 108.27688 331.93124Q109.01125 331.93124 109.49563 331.22812Q109.99563 330.525 109.99563 328.41562Q109.99563 326.29062 109.49563 325.60312Q109.01125 324.9 108.26125 324.9Q107.5425 324.9 107.105 325.50937Q106.55813 326.29062 106.55813 328.41562Z" fill-rule="nonzero"/><path fill="#000000" d="M211.365 327.99374Q210.70876 327.74374 210.38063 327.30624Q210.06813 326.85312 210.06813 326.24374Q210.06813 325.30624 210.74 324.66562Q211.4275 324.025 212.53688 324.025Q213.66188 324.025 214.34938 324.68124Q215.03688 325.3375 215.03688 326.275Q215.03688 326.86874 214.72438 327.30624Q214.41188 327.74374 213.77126 327.99374Q214.56813 328.24374 214.97438 328.82187Q215.38063 329.4 215.38063 330.19687Q215.38063 331.29062 214.59938 332.04062Q213.83376 332.79062 212.5525 332.79062Q211.28688 332.79062 210.50563 332.04062Q209.72438 331.29062 209.72438 330.16562Q209.72438 329.32187 210.14626 328.75937Q210.58376 328.19687 211.365 327.99374ZM211.14626 326.19687Q211.14626 326.80624 211.53688 327.19687Q211.94313 327.5875 212.56813 327.5875Q213.1775 327.5875 213.56813 327.2125Q213.95876 326.82187 213.95876 326.25937Q213.95876 325.68124 213.5525 325.29062Q213.14626 324.88437 212.5525 324.88437Q211.94313 324.88437 211.53688 325.275Q211.14626 325.66562 211.14626 326.19687ZM210.81813 330.16562Q210.81813 330.61874 211.02126 331.04062Q211.24 331.4625 211.66188 331.69687Q212.08376 331.93124 212.56813 331.93124Q213.31813 331.93124 213.8025 331.44687Q214.3025 330.9625 214.3025 330.2125Q214.3025 329.44687 213.8025 328.94687Q213.3025 328.44687 212.53688 328.44687Q211.78688 328.44687 211.3025 328.94687Q210.81813 329.43124 210.81813 330.16562ZM216.74 330.4L217.84938 330.30624Q217.97438 331.11874 218.41188 331.525Q218.865 331.93124 219.50563 331.93124Q220.25563 331.93124 220.78688 331.35312Q221.31813 330.775 221.31813 329.8375Q221.31813 328.93124 220.8025 328.41562Q220.3025 327.88437 219.47438 327.88437Q218.97438 327.88437 218.5525 328.11874Q218.14626 328.35312 217.91188 328.7125L216.9275 328.5875L217.75563 324.18124L222.03688 324.18124L222.03688 325.18124L218.59938 325.18124L218.14626 327.49374Q218.91188 326.94687 219.75563 326.94687Q220.88063 326.94687 221.64626 327.72812Q222.4275 328.50937 222.4275 329.74374Q222.4275 330.9 221.75563 331.75937Q220.9275 332.79062 219.50563 332.79062Q218.33376 332.79062 217.58376 332.13437Q216.84938 331.47812 216.74 330.4Z" fill-rule="nonzero"/><path fill="#000000" d="M321.0625 325.18124L321.0625 324.16562L326.625 324.16562L326.625 324.99374Q325.8125 325.86874 325.0 327.32187Q324.20312 328.75937 323.76562 330.29062Q323.4375 331.36874 323.35938 332.65L322.26562 332.65Q322.28125 331.63437 322.65625 330.19687Q323.04688 328.75937 323.75 327.43124Q324.46875 326.10312 325.28125 325.18124L321.0625 325.18124ZM328.0 330.4L329.10938 330.30624Q329.23438 331.11874 329.67188 331.525Q330.125 331.93124 330.76562 331.93124Q331.51562 331.93124 332.04688 331.35312Q332.57812 330.775 332.57812 329.8375Q332.57812 328.93124 332.0625 328.41562Q331.5625 327.88437 330.73438 327.88437Q330.23438 327.88437 329.8125 328.11874Q329.40625 328.35312 329.17188 328.7125L328.1875 328.5875L329.01562 324.18124L333.29688 324.18124L333.29688 325.18124L329.85938 325.18124L329.40625 327.49374Q330.17188 326.94687 331.01562 326.94687Q332.14062 326.94687 332.90625 327.72812Q333.6875 328.50937 333.6875 329.74374Q333.6875 330.9 333.01562 331.75937Q332.1875 332.79062 330.76562 332.79062Q329.59375 332.79062 328.84375 332.13437Q328.10938 331.47812 328.0 330.4Z" fill-rule="nonzero"/><path fill="#000000" d="M437.72876 326.16562L436.6819 326.24374Q436.54126 325.61874 436.29126 325.3375Q435.85376 324.88437 435.22876 324.88437Q434.72876 324.88437 434.33813 325.16562Q433.85376 325.54062 433.5569 326.24374Q433.27563 326.93124 433.26 328.2125Q433.635 327.63437 434.1819 327.35312Q434.7444 327.07187 435.35376 327.07187Q436.40063 327.07187 437.135 327.85312Q437.885 328.63437 437.885 329.85312Q437.885 330.66562 437.52563 331.36874Q437.1819 332.05624 436.5725 332.43124Q435.96313 332.79062 435.1975 332.79062Q433.8694 332.79062 433.04126 331.82187Q432.21313 330.85312 432.21313 328.63437Q432.21313 326.13437 433.135 325.00937Q433.9319 324.025 435.29126 324.025Q436.3069 324.025 436.9475 324.60312Q437.60376 325.16562 437.72876 326.16562ZM433.4319 329.86874Q433.4319 330.41562 433.65063 330.91562Q433.885 331.4 434.29126 331.66562Q434.71313 331.93124 435.1819 331.93124Q435.83813 331.93124 436.3225 331.4Q436.8069 330.85312 436.8069 329.93124Q436.8069 329.04062 436.3225 328.525Q435.85376 328.00937 435.135 328.00937Q434.41626 328.00937 433.91626 328.525Q433.4319 329.04062 433.4319 329.86874ZM439.26 330.4L440.3694 330.30624Q440.4944 331.11874 440.9319 331.525Q441.385 331.93124 442.02563 331.93124Q442.77563 331.93124 443.3069 331.35312Q443.83813 330.775 443.83813 329.8375Q443.83813 328.93124 443.3225 328.41562Q442.8225 327.88437 441.9944 327.88437Q441.4944 327.88437 441.0725 328.11874Q440.66626 328.35312 440.4319 328.7125L439.4475 328.5875L440.27563 324.18124L444.5569 324.18124L444.5569 325.18124L441.1194 325.18124L440.66626 327.49374Q441.4319 326.94687 442.27563 326.94687Q443.40063 326.94687 444.16626 327.72812Q444.9475 328.50937 444.9475 329.74374Q444.9475 330.9 444.27563 331.75937Q443.4475 332.79062 442.02563 332.79062Q440.85376 332.79062 440.10376 332.13437Q439.3694 331.47812 439.26 330.4Z" fill-rule="nonzero"/><path fill="#000000" d="M543.52 330.4L544.6294 330.30624Q544.7544 331.11874 545.1919 331.525Q545.645 331.93124 546.28564 331.93124Q547.03564 331.93124 547.5669 331.35312Q548.09814 330.775 548.09814 329.8375Q548.09814 328.93124 547.5825 328.41562Q547.0825 327.88437 546.2544 327.88437Q545.7544 327.88437 545.3325 328.11874Q544.9263 328.35312 544.6919 328.7125L543.7075 328.5875L544.53564 324.18124L548.8169 324.18124L548.8169 325.18124L545.3794 325.18124L544.9263 327.49374Q545.6919 326.94687 546.53564 326.94687Q547.66064 326.94687 548.4263 327.72812Q549.2075 328.50937 549.2075 329.74374Q549.2075 330.9 548.53564 331.75937Q547.7075 332.79062 546.28564 332.79062Q545.1138 332.79062 544.3638 332.13437Q543.6294 331.47812 543.52 330.4ZM550.52 330.4L551.6294 330.30624Q551.7544 331.11874 552.1919 331.525Q552.645 331.93124 553.28564 331.93124Q554.03564 331.93124 554.5669 331.35312Q555.09814 330.775 555.09814 329.8375Q555.09814 328.93124 554.5825 328.41562Q554.0825 327.88437 553.2544 327.88437Q552.7544 327.88437 552.3325 328.11874Q551.9263 328.35312 551.6919 328.7125L550.7075 328.5875L551.53564 324.18124L555.8169 324.18124L555.8169 325.18124L552.3794 325.18124L551.9263 327.49374Q552.6919 326.94687 553.53564 326.94687Q554.66064 326.94687 555.4263 327.72812Q556.2075 328.50937 556.2075 329.74374Q556.2075 330.9 555.53564 331.75937Q554.7075 332.79062 553.28564 332.79062Q552.1138 332.79062 551.3638 332.13437Q550.6294 331.47812 550.52 330.4Z" fill-rule="nonzero"/><path fill="#ea4335" d="M140.5 26.35C140.5 29.663708 137.8137 32.35 134.5 32.35C131.1863 32.35 128.5 29.663708 128.5 26.35C128.5 23.036291 131.1863 20.35 134.5 20.35C137.8137 20.35 140.5 23.036291 140.5 26.35Z" fill-rule="nonzero"/><path fill="#1a1a1a" d="M149.625 30.35Q152.10938 29.7875 153.70312 28.240625L151.3125 28.240625L151.21875 28.56875L150.28125 28.38125Q150.65625 27.06875 150.60938 25.803125L154.21875 25.803125L154.21875 24.959375L150.375 24.959375L150.375 24.209375L158.34375 24.209375L158.34375 26.553125L155.15625 26.553125L155.15625 27.490625L159.32812 27.490625L159.0 29.69375Q158.85938 30.678125 158.01562 30.678125L156.84375 30.678125L156.75 29.7875L157.6875 29.7875Q158.01562 29.7875 158.0625 29.459375L158.25 28.240625L155.15625 28.240625L155.15625 31.428125L154.21875 31.428125L154.21875 28.896875Q152.57812 30.678125 150.04688 31.2875L149.625 30.35ZM153.98438 23.4125Q154.96875 22.240625 155.34375 20.6L156.28125 20.88125Q156.46875 21.06875 156.14062 21.115625L155.95312 21.725L159.60938 21.725L159.60938 22.615625L157.5 22.615625L158.01562 23.50625L156.9375 23.7875L156.51562 22.615625L155.625 22.615625Q155.29688 23.31875 154.73438 23.928125L153.98438 23.4125ZM151.40625 21.725L154.26562 21.725L154.26562 22.615625L152.8125 22.615625L153.28125 23.553125L152.29688 23.7875L151.92188 22.615625L150.98438 22.615625Q150.42188 23.553125 149.76562 24.115625L149.10938 23.4125Q150.28125 22.334375 150.89062 20.646875L151.78125 20.975Q151.96875 21.1625 151.64062 21.209375L151.40625 21.725ZM155.15625 25.803125L157.40625 25.803125L157.40625 24.959375L155.15625 24.959375L155.15625 25.803125ZM151.54688 26.553125Q151.5 27.021875 151.45312 27.490625L154.21875 27.490625L154.21875 26.553125L151.54688 26.553125ZM171.32812 25.19375L171.32812 26.225L161.4375 26.225L161.4375 25.19375L171.32812 25.19375ZM183.46875 31.19375Q180.60938 30.06875 179.48438 27.303125Q178.6875 30.1625 174.98438 31.240625L174.46875 30.25625Q178.82812 29.13125 178.82812 25.334375L178.82812 23.50625L178.21875 23.50625Q177.60938 24.725 176.48438 25.85L175.6875 25.053125Q177.51562 23.225 178.07812 20.69375L179.15625 20.975Q179.34375 21.115625 179.01562 21.303125Q178.875 21.725 178.54688 22.615625L182.71875 22.615625L182.90625 22.428125L183.70312 23.084375Q183.89062 23.31875 183.51562 23.365625Q182.90625 24.865625 181.59375 26.69375L180.79688 25.990625Q181.92188 24.584375 182.29688 23.50625L179.90625 23.50625L179.90625 25.1Q179.90625 28.428125 183.9375 30.06875L183.46875 31.19375ZM176.625 26.975Q175.35938 28.38125 174.0 29.31875Q173.90625 29.69375 173.76562 29.50625L173.10938 28.521875Q174.70312 27.490625 175.96875 26.225L176.625 26.975ZM175.26562 24.115625Q174.5625 23.31875 173.57812 22.803125L174.28125 21.865625Q175.3125 22.334375 176.0625 23.084375L175.26562 24.115625ZM195.60938 25.240625L195.60938 26.13125L191.0625 26.13125L191.0625 31.240625L189.98438 31.240625L189.98438 26.13125L185.4375 26.13125L185.4375 25.240625L189.98438 25.240625L189.98438 22.428125L186.32812 22.428125L186.32812 21.5375L194.67188 21.5375L194.67188 22.428125L191.0625 22.428125L191.0625 25.240625L195.60938 25.240625ZM207.32812 27.115625Q207.60938 27.35 207.14062 27.396875Q205.3125 31.2875 200.67188 31.2875L200.39062 30.25625Q204.89062 30.396875 206.39062 26.459375L207.32812 27.115625ZM204.42188 20.6Q204.79688 20.646875 204.46875 20.88125L204.46875 22.19375L206.95312 22.19375L206.95312 23.084375L204.46875 23.084375L204.46875 24.35L207.60938 24.35L207.60938 25.240625L204.32812 25.240625L204.46875 25.2875Q204.79688 25.428125 204.46875 25.56875L204.46875 28.475Q204.46875 29.13125 203.8125 29.13125L202.92188 29.13125L202.73438 28.1L203.34375 28.1Q203.53125 28.1 203.53125 27.9125L203.53125 25.240625L200.0625 25.240625L200.0625 24.35L201.42188 24.35L201.42188 21.678125L202.3125 21.678125Q202.6875 21.725 202.35938 21.959375L202.35938 24.35L203.53125 24.35L203.53125 20.6L204.42188 20.6ZM198.65625 21.1625Q199.59375 21.5375 200.4375 22.240625L199.82812 23.084375Q198.9375 22.38125 198.14062 21.959375L198.65625 21.1625ZM199.73438 27.35Q199.03125 29.50625 198.23438 30.9125Q198.32812 31.2875 198.04688 31.1L197.25 30.303125Q198.1875 28.990625 198.89062 26.834375L199.73438 27.35ZM198.09375 23.740625Q199.125 24.303125 199.73438 25.00625L199.07812 25.85Q198.42188 25.19375 197.48438 24.584375L198.09375 23.740625ZM202.6875 26.13125Q203.01562 26.365625 202.54688 26.4125Q201.84375 27.771875 200.71875 28.896875L200.15625 28.053125Q201.28125 26.975 201.84375 25.6625L202.6875 26.13125Z" fill-rule="nonzero"/><path fill="#fbbc04" d="M236.5 26.35C236.5 29.663708 233.8137 32.35 230.5 32.35C227.1863 32.35 224.5 29.663708 224.5 26.35C224.5 23.036291 227.1863 20.35 230.5 20.35C233.8137 20.35 236.5 23.036291 236.5 26.35Z" fill-rule="nonzero"/><path fill="#1a1a1a" d="M245.625 30.35Q248.10938 29.7875 249.70312 28.240625L247.3125 28.240625L247.21875 28.56875L246.28125 28.38125Q246.65625 27.06875 246.60938 25.803125L250.21875 25.803125L250.21875 24.959375L246.375 24.959375L246.375 24.209375L254.34375 24.209375L254.34375 26.553125L251.15625 26.553125L251.15625 27.490625L255.32812 27.490625L255.0 29.69375Q254.85938 30.678125 254.01562 30.678125L252.84375 30.678125L252.75 29.7875L253.6875 29.7875Q254.01562 29.7875 254.0625 29.459375L254.25 28.240625L251.15625 28.240625L251.15625 31.428125L250.21875 31.428125L250.21875 28.896875Q248.57812 30.678125 246.04688 31.2875L245.625 30.35ZM249.98438 23.4125Q250.96875 22.240625 251.34375 20.6L252.28125 20.88125Q252.46875 21.06875 252.14062 21.115625L251.95312 21.725L255.60938 21.725L255.60938 22.615625L253.5 22.615625L254.01562 23.50625L252.9375 23.7875L252.51562 22.615625L251.625 22.615625Q251.29688 23.31875 250.73438 23.928125L249.98438 23.4125ZM247.40625 21.725L250.26562 21.725L250.26562 22.615625L248.8125 22.615625L249.28125 23.553125L248.29688 23.7875L247.92188 22.615625L246.98438 22.615625Q246.42188 23.553125 245.76562 24.115625L245.10938 23.4125Q246.28125 22.334375 246.89062 20.646875L247.78125 20.975Q247.96875 21.1625 247.64062 21.209375L247.40625 21.725ZM251.15625 25.803125L253.40625 25.803125L253.40625 24.959375L251.15625 24.959375L251.15625 25.803125ZM247.54688 26.553125Q247.5 27.021875 247.45312 27.490625L250.21875 27.490625L250.21875 26.553125L247.54688 26.553125ZM266.34375 22.2875L266.34375 23.31875L258.65625 23.31875L258.65625 22.2875L266.34375 22.2875ZM267.51562 28.6625L267.51562 29.69375L257.39062 29.69375L257.39062 28.6625L267.51562 28.6625ZM279.46875 31.19375Q276.60938 30.06875 275.48438 27.303125Q274.6875 30.1625 270.98438 31.240625L270.46875 30.25625Q274.82812 29.13125 274.82812 25.334375L274.82812 23.50625L274.21875 23.50625Q273.60938 24.725 272.48438 25.85L271.6875 25.053125Q273.51562 23.225 274.07812 20.69375L275.15625 20.975Q275.34375 21.115625 275.01562 21.303125Q274.875 21.725 274.54688 22.615625L278.71875 22.615625L278.90625 22.428125L279.70312 23.084375Q279.89062 23.31875 279.51562 23.365625Q278.90625 24.865625 277.59375 26.69375L276.79688 25.990625Q277.92188 24.584375 278.29688 23.50625L275.90625 23.50625L275.90625 25.1Q275.90625 28.428125 279.9375 30.06875L279.46875 31.19375ZM272.625 26.975Q271.35938 28.38125 270.0 29.31875Q269.90625 29.69375 269.76562 29.50625L269.10938 28.521875Q270.70312 27.490625 271.96875 26.225L272.625 26.975ZM271.26562 24.115625Q270.5625 23.31875 269.57812 22.803125L270.28125 21.865625Q271.3125 22.334375 272.0625 23.084375L271.26562 24.115625ZM291.60938 25.240625L291.60938 26.13125L287.0625 26.13125L287.0625 31.240625L285.98438 31.240625L285.98438 26.13125L281.4375 26.13125L281.4375 25.240625L285.98438 25.240625L285.98438 22.428125L282.32812 22.428125L282.32812 21.5375L290.67188 21.5375L290.67188 22.428125L287.0625 22.428125L287.0625 25.240625L291.60938 25.240625ZM303.32812 27.115625Q303.60938 27.35 303.14062 27.396875Q301.3125 31.2875 296.67188 31.2875L296.39062 30.25625Q300.89062 30.396875 302.39062 26.459375L303.32812 27.115625ZM300.42188 20.6Q300.79688 20.646875 300.46875 20.88125L300.46875 22.19375L302.95312 22.19375L302.95312 23.084375L300.46875 23.084375L300.46875 24.35L303.60938 24.35L303.60938 25.240625L300.32812 25.240625L300.46875 25.2875Q300.79688 25.428125 300.46875 25.56875L300.46875 28.475Q300.46875 29.13125 299.8125 29.13125L298.92188 29.13125L298.73438 28.1L299.34375 28.1Q299.53125 28.1 299.53125 27.9125L299.53125 25.240625L296.0625 25.240625L296.0625 24.35L297.42188 24.35L297.42188 21.678125L298.3125 21.678125Q298.6875 21.725 298.35938 21.959375L298.35938 24.35L299.53125 24.35L299.53125 20.6L300.42188 20.6ZM294.65625 21.1625Q295.59375 21.5375 296.4375 22.240625L295.82812 23.084375Q294.9375 22.38125 294.14062 21.959375L294.65625 21.1625ZM295.73438 27.35Q295.03125 29.50625 294.23438 30.9125Q294.32812 31.2875 294.04688 31.1L293.25 30.303125Q294.1875 28.990625 294.89062 26.834375L295.73438 27.35ZM294.09375 23.740625Q295.125 24.303125 295.73438 25.00625L295.07812 25.85Q294.42188 25.19375 293.48438 24.584375L294.09375 23.740625ZM298.6875 26.13125Q299.01562 26.365625 298.54688 26.4125Q297.84375 27.771875 296.71875 28.896875L296.15625 28.053125Q297.28125 26.975 297.84375 25.6625L298.6875 26.13125Z" fill-rule="nonzero"/><path fill="#34a853" d="M332.5 26.35C332.5 29.663708 329.81372 32.35 326.5 32.35C323.18628 32.35 320.5 29.663708 320.5 26.35C320.5 23.036291 323.18628 20.35 326.5 20.35C329.81372 20.35 332.5 23.036291 332.5 26.35Z" fill-rule="nonzero"/><path fill="#1a1a1a" d="M341.625 30.35Q344.10938 29.7875 345.70312 28.240625L343.3125 28.240625L343.21875 28.56875L342.28125 28.38125Q342.65625 27.06875 342.60938 25.803125L346.21875 25.803125L346.21875 24.959375L342.375 24.959375L342.375 24.209375L350.34375 24.209375L350.34375 26.553125L347.15625 26.553125L347.15625 27.490625L351.32812 27.490625L351.0 29.69375Q350.85938 30.678125 350.01562 30.678125L348.84375 30.678125L348.75 29.7875L349.6875 29.7875Q350.01562 29.7875 350.0625 29.459375L350.25 28.240625L347.15625 28.240625L347.15625 31.428125L346.21875 31.428125L346.21875 28.896875Q344.57812 30.678125 342.04688 31.2875L341.625 30.35ZM345.98438 23.4125Q346.96875 22.240625 347.34375 20.6L348.28125 20.88125Q348.46875 21.06875 348.14062 21.115625L347.95312 21.725L351.60938 21.725L351.60938 22.615625L349.5 22.615625L350.01562 23.50625L348.9375 23.7875L348.51562 22.615625L347.625 22.615625Q347.29688 23.31875 346.73438 23.928125L345.98438 23.4125ZM343.40625 21.725L346.26562 21.725L346.26562 22.615625L344.8125 22.615625L345.28125 23.553125L344.29688 23.7875L343.92188 22.615625L342.98438 22.615625Q342.42188 23.553125 341.76562 24.115625L341.10938 23.4125Q342.28125 22.334375 342.89062 20.646875L343.78125 20.975Q343.96875 21.1625 343.64062 21.209375L343.40625 21.725ZM347.15625 25.803125L349.40625 25.803125L349.40625 24.959375L347.15625 24.959375L347.15625 25.803125ZM343.54688 26.553125Q343.5 27.021875 343.45312 27.490625L346.21875 27.490625L346.21875 26.553125L343.54688 26.553125ZM362.71875 21.865625L362.71875 22.896875L354.32812 22.896875L354.32812 21.865625L362.71875 21.865625ZM362.0625 26.459375L354.9375 26.459375L354.9375 25.428125L362.0625 25.428125L362.0625 26.459375ZM353.4375 29.225L363.5625 29.225L363.5625 30.25625L353.4375 30.25625L353.4375 29.225ZM375.46875 31.19375Q372.60938 30.06875 371.48438 27.303125Q370.6875 30.1625 366.98438 31.240625L366.46875 30.25625Q370.82812 29.13125 370.82812 25.334375L370.82812 23.50625L370.21875 23.50625Q369.60938 24.725 368.48438 25.85L367.6875 25.053125Q369.51562 23.225 370.07812 20.69375L371.15625 20.975Q371.34375 21.115625 371.01562 21.303125Q370.875 21.725 370.54688 22.615625L374.71875 22.615625L374.90625 22.428125L375.70312 23.084375Q375.89062 23.31875 375.51562 23.365625Q374.90625 24.865625 373.59375 26.69375L372.79688 25.990625Q373.92188 24.584375 374.29688 23.50625L371.90625 23.50625L371.90625 25.1Q371.90625 28.428125 375.9375 30.06875L375.46875 31.19375ZM368.625 26.975Q367.35938 28.38125 366.0 29.31875Q365.90625 29.69375 365.76562 29.50625L365.10938 28.521875Q366.70312 27.490625 367.96875 26.225L368.625 26.975ZM367.26562 24.115625Q366.5625 23.31875 365.57812 22.803125L366.28125 21.865625Q367.3125 22.334375 368.0625 23.084375L367.26562 24.115625ZM387.60938 25.240625L387.60938 26.13125L383.0625 26.13125L383.0625 31.240625L381.98438 31.240625L381.98438 26.13125L377.4375 26.13125L377.4375 25.240625L381.98438 25.240625L381.98438 22.428125L378.32812 22.428125L378.32812 21.5375L386.67188 21.5375L386.67188 22.428125L383.0625 22.428125L383.0625 25.240625L387.60938 25.240625ZM399.32812 27.115625Q399.60938 27.35 399.14062 27.396875Q397.3125 31.2875 392.67188 31.2875L392.39062 30.25625Q396.89062 30.396875 398.39062 26.459375L399.32812 27.115625ZM396.42188 20.6Q396.79688 20.646875 396.46875 20.88125L396.46875 22.19375L398.95312 22.19375L398.95312 23.084375L396.46875 23.084375L396.46875 24.35L399.60938 24.35L399.60938 25.240625L396.32812 25.240625L396.46875 25.2875Q396.79688 25.428125 396.46875 25.56875L396.46875 28.475Q396.46875 29.13125 395.8125 29.13125L394.92188 29.13125L394.73438 28.1L395.34375 28.1Q395.53125 28.1 395.53125 27.9125L395.53125 25.240625L392.0625 25.240625L392.0625 24.35L393.42188 24.35L393.42188 21.678125L394.3125 21.678125Q394.6875 21.725 394.35938 21.959375L394.35938 24.35L395.53125 24.35L395.53125 20.6L396.42188 20.6ZM390.65625 21.1625Q391.59375 21.5375 392.4375 22.240625L391.82812 23.084375Q390.9375 22.38125 390.14062 21.959375L390.65625 21.1625ZM391.73438 27.35Q391.03125 29.50625 390.23438 30.9125Q390.32812 31.2875 390.04688 31.1L389.25 30.303125Q390.1875 28.990625 390.89062 26.834375L391.73438 27.35ZM390.09375 23.740625Q391.125 24.303125 391.73438 25.00625L391.07812 25.85Q390.42188 25.19375 389.48438 24.584375L390.09375 23.740625ZM394.6875 26.13125Q395.01562 26.365625 394.54688 26.4125Q393.84375 27.771875 392.71875 28.896875L392.15625 28.053125Q393.28125 26.975 393.84375 25.6625L394.6875 26.13125Z" fill-rule="nonzero"/><path fill="#4285f4" d="M428.5 26.35C428.5 29.663708 425.81372 32.35 422.5 32.35C419.18628 32.35 416.5 29.663708 416.5 26.35C416.5 23.036291 419.18628 20.35 422.5 20.35C425.81372 20.35 428.5 23.036291 428.5 26.35Z" fill-rule="nonzero"/><path fill="#1a1a1a" d="M437.625 30.35Q440.10938 29.7875 441.70312 28.240625L439.3125 28.240625L439.21875 28.56875L438.28125 28.38125Q438.65625 27.06875 438.60938 25.803125L442.21875 25.803125L442.21875 24.959375L438.375 24.959375L438.375 24.209375L446.34375 24.209375L446.34375 26.553125L443.15625 26.553125L443.15625 27.490625L447.32812 27.490625L447.0 29.69375Q446.85938 30.678125 446.01562 30.678125L444.84375 30.678125L444.75 29.7875L445.6875 29.7875Q446.01562 29.7875 446.0625 29.459375L446.25 28.240625L443.15625 28.240625L443.15625 31.428125L442.21875 31.428125L442.21875 28.896875Q440.57812 30.678125 438.04688 31.2875L437.625 30.35ZM441.98438 23.4125Q442.96875 22.240625 443.34375 20.6L444.28125 20.88125Q444.46875 21.06875 444.14062 21.115625L443.95312 21.725L447.60938 21.725L447.60938 22.615625L445.5 22.615625L446.01562 23.50625L444.9375 23.7875L444.51562 22.615625L443.625 22.615625Q443.29688 23.31875 442.73438 23.928125L441.98438 23.4125ZM439.40625 21.725L442.26562 21.725L442.26562 22.615625L440.8125 22.615625L441.28125 23.553125L440.29688 23.7875L439.92188 22.615625L438.98438 22.615625Q438.42188 23.553125 437.76562 24.115625L437.10938 23.4125Q438.28125 22.334375 438.89062 20.646875L439.78125 20.975Q439.96875 21.1625 439.64062 21.209375L439.40625 21.725ZM443.15625 25.803125L445.40625 25.803125L445.40625 24.959375L443.15625 24.959375L443.15625 25.803125ZM439.54688 26.553125Q439.5 27.021875 439.45312 27.490625L442.21875 27.490625L442.21875 26.553125L439.54688 26.553125ZM450.70312 27.5375L450.70312 28.990625L458.20312 28.990625L458.20312 26.271875Q457.96875 27.5375 457.125 27.5375L455.76562 27.5375Q454.96875 27.5375 454.96875 26.69375L454.96875 22.85L453.51562 22.85L453.51562 24.63125Q453.51562 27.35 451.21875 28.2875L450.70312 27.5375ZM458.20312 25.803125L458.20312 22.85L455.90625 22.85L455.90625 26.271875Q455.90625 26.646875 456.23438 26.646875L456.70312 26.646875Q457.125 26.646875 457.26562 25.56875L458.20312 25.803125ZM459.14062 21.959375L459.14062 30.584375L458.20312 30.584375L458.20312 29.88125L450.70312 29.88125L450.70312 30.678125L449.76562 30.678125L449.76562 21.959375L459.14062 21.959375ZM450.70312 22.85L450.70312 27.35Q452.57812 26.740625 452.57812 24.490625L452.57812 22.85L450.70312 22.85ZM471.46875 31.19375Q468.60938 30.06875 467.48438 27.303125Q466.6875 30.1625 462.98438 31.240625L462.46875 30.25625Q466.82812 29.13125 466.82812 25.334375L466.82812 23.50625L466.21875 23.50625Q465.60938 24.725 464.48438 25.85L463.6875 25.053125Q465.51562 23.225 466.07812 20.69375L467.15625 20.975Q467.34375 21.115625 467.01562 21.303125Q466.875 21.725 466.54688 22.615625L470.71875 22.615625L470.90625 22.428125L471.70312 23.084375Q471.89062 23.31875 471.51562 23.365625Q470.90625 24.865625 469.59375 26.69375L468.79688 25.990625Q469.92188 24.584375 470.29688 23.50625L467.90625 23.50625L467.90625 25.1Q467.90625 28.428125 471.9375 30.06875L471.46875 31.19375ZM464.625 26.975Q463.35938 28.38125 462.0 29.31875Q461.90625 29.69375 461.76562 29.50625L461.10938 28.521875Q462.70312 27.490625 463.96875 26.225L464.625 26.975ZM463.26562 24.115625Q462.5625 23.31875 461.57812 22.803125L462.28125 21.865625Q463.3125 22.334375 464.0625 23.084375L463.26562 24.115625ZM483.60938 25.240625L483.60938 26.13125L479.0625 26.13125L479.0625 31.240625L477.98438 31.240625L477.98438 26.13125L473.4375 26.13125L473.4375 25.240625L477.98438 25.240625L477.98438 22.428125L474.32812 22.428125L474.32812 21.5375L482.67188 21.5375L482.67188 22.428125L479.0625 22.428125L479.0625 25.240625L483.60938 25.240625ZM495.32812 27.115625Q495.60938 27.35 495.14062 27.396875Q493.3125 31.2875 488.67188 31.2875L488.39062 30.25625Q492.89062 30.396875 494.39062 26.459375L495.32812 27.115625ZM492.42188 20.6Q492.79688 20.646875 492.46875 20.88125L492.46875 22.19375L494.95312 22.19375L494.95312 23.084375L492.46875 23.084375L492.46875 24.35L495.60938 24.35L495.60938 25.240625L492.32812 25.240625L492.46875 25.2875Q492.79688 25.428125 492.46875 25.56875L492.46875 28.475Q492.46875 29.13125 491.8125 29.13125L490.92188 29.13125L490.73438 28.1L491.34375 28.1Q491.53125 28.1 491.53125 27.9125L491.53125 25.240625L488.0625 25.240625L488.0625 24.35L489.42188 24.35L489.42188 21.678125L490.3125 21.678125Q490.6875 21.725 490.35938 21.959375L490.35938 24.35L491.53125 24.35L491.53125 20.6L492.42188 20.6ZM486.65625 21.1625Q487.59375 21.5375 488.4375 22.240625L487.82812 23.084375Q486.9375 22.38125 486.14062 21.959375L486.65625 21.1625ZM487.73438 27.35Q487.03125 29.50625 486.23438 30.9125Q486.32812 31.2875 486.04688 31.1L485.25 30.303125Q486.1875 28.990625 486.89062 26.834375L487.73438 27.35ZM486.09375 23.740625Q487.125 24.303125 487.73438 25.00625L487.07812 25.85Q486.42188 25.19375 485.48438 24.584375L486.09375 23.740625ZM490.6875 26.13125Q491.01562 26.365625 490.54688 26.4125Q489.84375 27.771875 488.71875 28.896875L488.15625 28.053125Q489.28125 26.975 489.84375 25.6625L490.6875 26.13125Z" fill-rule="nonzero"/></svg>